<svg id="Layer_1" data-name="Layer 1" xmlns="http://www.w3.org/2000/svg" xmlns:xlink="http://www.w3.org/1999/xlink" viewBox="0 0 128.45 91.57"><defs><style>.cls-1{fill:none;}.cls-2{clip-path:url(#clip-path);}.cls-3{clip-path:url(#clip-path-2);}.cls-4{clip-path:url(#clip-path-3);}.cls-5{clip-path:url(#clip-path-4);}.cls-6{clip-path:url(#clip-path-5);}.cls-7{clip-path:url(#clip-path-6);}</style><clipPath id="clip-path"><path class="cls-1" d="M-1011.91,29.5l8.08-26H-943l8.07,26Zm69.5,22a7.5,7.5,0,0,1-7.5-7.5,7.5,7.5,0,0,1,7.5-7.5,7.5,7.5,0,0,1,7.5,7.5A7.5,7.5,0,0,1-942.41,51.5Zm-62,0a7.5,7.5,0,0,1-7.5-7.5,7.5,7.5,0,0,1,7.5-7.5,7.5,7.5,0,0,1,7.5,7.5A7.5,7.5,0,0,1-1004.41,51.5ZM-933.75-.67a9.72,9.72,0,0,0-9.2-6.83h-60.91a9.74,9.74,0,0,0-9.21,6.83l-8.84,27.36V77.5a4.93,4.93,0,0,0,4.85,5h9.7a4.93,4.93,0,0,0,4.85-5v-10h58.2v10a4.93,4.93,0,0,0,4.85,5h9.7a4.93,4.93,0,0,0,4.85-5V26.69Z"/></clipPath><clipPath id="clip-path-2"><path class="cls-1" d="M-228.78,76a6.5,6.5,0,0,0,6.5-6.5,6.5,6.5,0,0,0-6.5-6.5,6.5,6.5,0,0,0-6.5,6.5A6.5,6.5,0,0,0-228.78,76Zm-58,0a6.5,6.5,0,0,0,6.5-6.5,6.5,6.5,0,0,0-6.5-6.5,6.5,6.5,0,0,0-6.5,6.5A6.5,6.5,0,0,0-286.78,76Zm4-42.71V11.23l-26.1-.14c-1.83,0-2.25,1.53-2.55,2.41l-.53,19.67Zm43.6.19-8.66-14.62c-4.43-7.48-11.72-7.72-17.21-7.72l-13.26.07v22.1Zm-3.93,34.11h-29.53v.48c0,8.23-6.41,14.93-14.3,14.93s-14.29-6.7-14.29-14.93v-.48H-306v-.25c-10.08-1.57-12.37-10.18-12.27-18h0l.09-2.95c-2.71-.71-6.06-3.08-6.06-5.9V23.86a6,6,0,0,1,5.88-6.14h1l.09-4.78,0-.28c.37-3.16,2.6-7.49,8.4-7.49L-263.93,5c10.65,0,17.07,4.12,21.24,10.86,10,16.18,0,0,10.9,17.65l23.92.1c16.92,0,22.25,33.87-1.11,33.87-.77,0-.78,0-1.6.06v0h-3.92v.48c0,8.23-6.41,14.93-14.3,14.93s-14.3-6.7-14.3-14.93C-243.1,67.91-243.09,67.75-243.09,67.59Z"/></clipPath><clipPath id="clip-path-3"><path class="cls-1" d="M96.45,77a7,7,0,1,0-7-7A7,7,0,0,0,96.45,77Zm-64,0a7,7,0,1,0-7-7A7,7,0,0,0,32.45,77Zm49-57V35h26c-3-5.19-7.32-11.21-12.36-15ZM12.3,4H98.4a5.29,5.29,0,0,1,3.11.89c14.06,10.19,21.94,33.4,21.94,33.4V61.14a11.56,11.56,0,0,1-11.7,11.43h-.37a14.61,14.61,0,0,1-28.52,0H47a14.61,14.61,0,0,1-28.52,0h-.36A11.56,11.56,0,0,1,6.45,61.14V9.71A5.78,5.78,0,0,1,12.3,4ZM90,73.16a8.89,8.89,0,0,1-.57-2.89v.23A6.38,6.38,0,0,0,90,73.16Z"/></clipPath><clipPath id="clip-path-4"><rect class="cls-1" x="-439.55" y="-328" width="1280" height="1219"/></clipPath><clipPath id="clip-path-5"><path class="cls-1" d="M-64.28,75.74a8,8,0,0,0,8-8,8,8,0,0,0-8-8,8,8,0,0,0-8,8A8,8,0,0,0-64.28,75.74Zm-57,0a8,8,0,0,0,8-8,8,8,0,0,0-8-8,8,8,0,0,0-8,8A8,8,0,0,0-121.28,75.74Zm-24-77a3.82,3.82,0,0,1,1.2-2.81,3.92,3.92,0,0,1,2.84-1.19h64.59a3.92,3.92,0,0,1,2.84,1.19,3.82,3.82,0,0,1,1.2,2.81v12h10.09a9.79,9.79,0,0,1,3.69.81,9.63,9.63,0,0,1,3.19,2l12.49,12.38a8.61,8.61,0,0,1,1.42,1.87,12.35,12.35,0,0,1,.88,1.91A10.54,10.54,0,0,1-40.44,32c.08,1,.14,1.7.16,2.16s0,1.25,0,2.37,0,1.86,0,2.19v20a3.9,3.9,0,0,1,2.84,1.19,3.82,3.82,0,0,1,1.2,2.81,5,5,0,0,1-.25,1.66,2.34,2.34,0,0,1-.85,1.15c-.4.29-.75.53-1,.72a3.59,3.59,0,0,1-1.49.38l-1.41.12c-.26,0-.79,0-1.61,0l-1.42,0h-4a15.34,15.34,0,0,1-4.73,11.31,15.61,15.61,0,0,1-11.42,4.69,15.59,15.59,0,0,1-11.41-4.69,15.31,15.31,0,0,1-4.74-11.31h-24.22a15.3,15.3,0,0,1-4.73,11.31,15.61,15.61,0,0,1-11.42,4.69,15.6,15.6,0,0,1-11.41-4.69,15.3,15.3,0,0,1-4.73-11.31l-1.42,0c-.82,0-1.36,0-1.61,0l-1.42-.12a3.49,3.49,0,0,1-1.48-.38c-.3-.19-.64-.43-1-.72A2.36,2.36,0,0,1-145,64.4a5.27,5.27,0,0,1-.25-1.66Zm96,36V32.86a1.89,1.89,0,0,0-.54-1.37L-61.5,19.3a1.77,1.77,0,0,0-1.31-.56h-9.47v16Z"/></clipPath><clipPath id="clip-path-6"><path class="cls-1" d="M263.17,54.51c.34,0,.68,0,1,0a10.51,10.51,0,1,1-11,10.5A10.12,10.12,0,0,1,256,58.28l4.64,8.53a4.09,4.09,0,0,0,3.53,2.66,4.17,4.17,0,0,0,4-2,3.81,3.81,0,0,0-.29-4.28Zm-72,0a11.59,11.59,0,0,1,4.3.82l-7.22,6.89A3.82,3.82,0,0,0,187.21,66a4,4,0,0,0,2.92,2.79,4.26,4.26,0,0,0,4-1l7.22-6.73A10.06,10.06,0,0,1,202.2,65a11,11,0,1,1-11-10.5Zm37-40c-4.36,0-4.36,5.65,0,6.17l4.26.65a62.6,62.6,0,0,0-23.33,12.33s.64-3.08-4.26-3.08c-14.17,0-20.78-1-20.78,5.19-9.26,0-10.9,3.64-10.9,10.39a78.53,78.53,0,0,1,13.29,1c-7.59,2.41-13.29,9.27-13.29,17.2,0,9.87,8.72,18.18,19.08,18.18s19.07-8.31,19.07-18.18a16.25,16.25,0,0,0-.34-3.57,23.54,23.54,0,0,0,6.81,1h14.82c4.36,0,10.8-1.63,12.43-9.42L247,43.06,251,50.37a18,18,0,0,0-7,13.95c0,9.87,8.72,18.18,19.08,18.18s19.07-8.31,19.07-18.18-8.72-18.17-19.07-18.17a18.75,18.75,0,0,0-4.94.65L249.5,30.73c0-.12,0-.34,0-.49a21.53,21.53,0,0,0,3.75.33c7.08,0,7.15,0,7.15-7.79S260.33,15,253.25,15c-4.9,0-9,1.56-11.41,3.73C239.89,18,229.7,14.5,228.21,14.5Z"/></clipPath></defs><title>Untitled-1</title><g class="cls-4"><g class="cls-5"><rect x="1.45" y="-1" width="127" height="90"/></g></g></svg>