<svg id="Layer_1" data-name="Layer 1" xmlns="http://www.w3.org/2000/svg" xmlns:xlink="http://www.w3.org/1999/xlink" viewBox="0 0 109.59 103.6"><defs><style>.cls-1,.cls-2,.cls-6,.cls-7{fill:none;}.cls-2,.cls-6,.cls-7{stroke:#000;stroke-miterlimit:10;stroke-width:2px;}.cls-2{clip-rule:evenodd;}.cls-3{clip-path:url(#clip-path);}.cls-4{clip-path:url(#clip-path-2);}.cls-5{clip-path:url(#clip-path-3);}.cls-7{fill-rule:evenodd;}.cls-8{clip-path:url(#clip-path-4);}.cls-9{clip-path:url(#clip-path-5);}</style><clipPath id="clip-path"><path class="cls-1" d="M17.59,44.14l8.08-26H86.52l8.07,26Zm69.5,22a7.5,7.5,0,1,1,7.5-7.5A7.5,7.5,0,0,1,87.09,66.14Zm-62,0a7.5,7.5,0,1,1,7.5-7.5A7.5,7.5,0,0,1,25.09,66.14ZM95.75,14a9.72,9.72,0,0,0-9.2-6.84H25.64A9.72,9.72,0,0,0,16.44,14L7.59,41.33V92.14a4.93,4.93,0,0,0,4.85,5h9.7a4.93,4.93,0,0,0,4.85-5v-10h58.2v10a4.93,4.93,0,0,0,4.85,5h9.7a4.93,4.93,0,0,0,4.85-5V41.33Z"/></clipPath><clipPath id="clip-path-2"><rect class="cls-1" x="-222.41" y="-158.36" width="1280" height="1219"/></clipPath><clipPath id="clip-path-3"><path class="cls-2" d="M452.35,92.14a7.5,7.5,0,1,0-7.5-7.5A7.5,7.5,0,0,0,452.35,92.14Zm-81,0a7.5,7.5,0,1,0-7.5-7.5A7.5,7.5,0,0,0,371.35,92.14Zm70.06-41L429,35.86H353.44a.22.22,0,0,0-.23.22V51.31a.23.23,0,0,0,.23.23h87.79a.23.23,0,0,0,.23-.23A.24.24,0,0,0,441.41,51.17Zm-56.73,32.7a13.62,13.62,0,0,1-27.23,0H346.76a.9.9,0,0,1-.91-.9V30.05a.91.91,0,0,1,.91-.91h86.11a.9.9,0,0,1,.68.32l20.57,23.85,25.94,3.25a.91.91,0,0,1,.79.9V83a.9.9,0,0,1-.9.9H466.38a13.62,13.62,0,0,1-27.23,0Z"/></clipPath><clipPath id="clip-path-4"><path class="cls-1" d="M642.43,91.14a7,7,0,1,0-7-7A7,7,0,0,0,642.43,91.14Zm-73,0a7,7,0,1,0-7-7A7,7,0,0,0,569.43,91.14Zm9.43-40.29v-9.6H576a4.17,4.17,0,0,0-2.73,1l-9.11,7.87Zm7.42.36,44.66,2.17-8.55-6.59A26.8,26.8,0,0,0,606,41.25H586.28Zm41.54,35H583.11a14.24,14.24,0,0,1-28.1,0H538.79A2.31,2.31,0,0,1,536.43,84V75.69a2.29,2.29,0,0,1,2.35-2.27l2.32-18.07a6.85,6.85,0,0,1,7.26-5.82l5.07.26,15.75-13.61a8.45,8.45,0,0,1,5.53-2h32a32.4,32.4,0,0,1,19.75,6.67l17.86,13.77,24,5.75a6.71,6.71,0,0,1,5.26,6.45v6.64a1.81,1.81,0,0,1,1.84,1.77V84a2.31,2.31,0,0,1-2.36,2.27H655.92a14.24,14.24,0,0,1-28.1,0Z"/></clipPath><clipPath id="clip-path-5"><path class="cls-1" d="M271.81,76.64a6,6,0,1,1-5.5,6A5.77,5.77,0,0,1,271.81,76.64Zm-82,0a6,6,0,1,1-5.5,6A5.77,5.77,0,0,1,189.81,76.64Zm28.5-44h13.4c2.42,0,2.91.25,3.6,1.42a4.93,4.93,0,0,0,.4.61l8.6,11h-26Zm-35.85,0h22.85v13h-30l2.38-9.34A5.93,5.93,0,0,1,182.46,32.64Zm28.95-14a7.62,7.62,0,0,0-.79.2h-27.7c-8.23,0-14.74,5.88-16.81,13.51l-.2.21-4.35,17.87a7,7,0,0,0-.2,2.7V74.75a6.42,6.42,0,0,0,3.76,6l9.1,3.54c1.06,8.16,7.52,14.33,15.63,14.33,7.75,0,14-5.66,15.43-13.3h51.44c1.45,7.64,7.68,13.3,15.43,13.3,8.31,0,14.83-6.48,15.63-15l3.36-2.28a8.33,8.33,0,0,0,3.17-6.65V63.32A6.07,6.07,0,0,0,290,57.5L261.47,47.32,245.84,26.75l-.4-.62-.2.2a16.41,16.41,0,0,0-13.65-7.48h-18.4A6.28,6.28,0,0,0,211.41,18.65Z"/></clipPath></defs><title>Untitled-1</title><g class="cls-3"><g class="cls-4"><rect x="2.59" y="2.14" width="107" height="100"/></g></g><g class="cls-5"><rect class="cls-6" x="-336.15" y="-147.36" width="1280" height="1219"/></g><path class="cls-7" d="M452.35,92.14a7.5,7.5,0,1,0-7.5-7.5A7.5,7.5,0,0,0,452.35,92.14Zm-81,0a7.5,7.5,0,1,0-7.5-7.5A7.5,7.5,0,0,0,371.35,92.14Zm70.06-41L429,35.86H353.44a.22.22,0,0,0-.23.22V51.31a.23.23,0,0,0,.23.23h87.79a.23.23,0,0,0,.23-.23A.24.24,0,0,0,441.41,51.17Zm-56.73,32.7a13.62,13.62,0,0,1-27.23,0H346.76a.9.9,0,0,1-.91-.9V30.05a.91.91,0,0,1,.91-.91h86.11a.9.9,0,0,1,.68.32l20.57,23.85,25.94,3.25a.91.91,0,0,1,.79.9V83a.9.9,0,0,1-.9.9H466.38a13.62,13.62,0,0,1-27.23,0Z"/></svg>