<svg id="Layer_1" data-name="Layer 1" xmlns="http://www.w3.org/2000/svg" xmlns:xlink="http://www.w3.org/1999/xlink" viewBox="0 0 146.19 95.13"><defs><style>.cls-1,.cls-2,.cls-5,.cls-6{fill:none;}.cls-2,.cls-5,.cls-6{stroke:#000;stroke-miterlimit:10;stroke-width:2px;}.cls-2{clip-rule:evenodd;}.cls-3{clip-path:url(#clip-path);}.cls-4{clip-path:url(#clip-path-2);}.cls-6{fill-rule:evenodd;}.cls-7{clip-path:url(#clip-path-3);}.cls-8{clip-path:url(#clip-path-4);}.cls-9{clip-path:url(#clip-path-5);}.cls-10{clip-path:url(#clip-path-6);}.cls-11{clip-path:url(#clip-path-7);}</style><clipPath id="clip-path"><path class="cls-1" d="M-135.53,33.07l8.08-26H-66.6l8.07,26Zm69.5,22a7.5,7.5,0,0,1-7.5-7.5,7.5,7.5,0,0,1,7.5-7.5,7.5,7.5,0,0,1,7.5,7.5A7.5,7.5,0,0,1-66,55.07Zm-62,0a7.5,7.5,0,0,1-7.5-7.5,7.5,7.5,0,0,1,7.5-7.5,7.5,7.5,0,0,1,7.5,7.5A7.5,7.5,0,0,1-128,55.07ZM-57.37,2.9a9.71,9.71,0,0,0-9.21-6.83h-60.9a9.73,9.73,0,0,0-9.21,6.83l-8.84,27.36V81.07a4.93,4.93,0,0,0,4.85,5h9.7a4.93,4.93,0,0,0,4.85-5v-10h58.2v10a4.93,4.93,0,0,0,4.85,5h9.7a4.93,4.93,0,0,0,4.85-5V30.26Z"/></clipPath><clipPath id="clip-path-2"><path class="cls-2" d="M299.23,81.07a7.5,7.5,0,1,0-7.5-7.5A7.5,7.5,0,0,0,299.23,81.07Zm-81,0a7.5,7.5,0,1,0-7.5-7.5A7.5,7.5,0,0,0,218.23,81.07Zm70-41L275.89,24.78H200.32a.23.23,0,0,0-.23.23V40.24a.22.22,0,0,0,.23.22h87.79a.22.22,0,0,0,.22-.22A.19.19,0,0,0,288.28,40.1ZM231.56,72.79a13.62,13.62,0,0,1-27.23,0h-10.7a.9.9,0,0,1-.9-.9V19a.9.9,0,0,1,.9-.9h86.12a.89.89,0,0,1,.68.31L301,42.23l25.95,3.25a.91.91,0,0,1,.79.9V71.89a.9.9,0,0,1-.9.9H313.26a13.62,13.62,0,0,1-27.23,0Z"/></clipPath><clipPath id="clip-path-3"><path class="cls-1" d="M489.31,80.07a7,7,0,1,0-7-7A7,7,0,0,0,489.31,80.07Zm-73,0a7,7,0,1,0-7-7A7,7,0,0,0,416.31,80.07Zm9.43-40.3V30.18h-2.91a4.15,4.15,0,0,0-2.72,1L411,39.05Zm7.42.36,44.66,2.18-8.55-6.6a26.81,26.81,0,0,0-16.39-5.54H433.16Zm41.54,35H430a14.25,14.25,0,0,1-28.11,0H385.67a2.31,2.31,0,0,1-2.36-2.26V64.62a2.28,2.28,0,0,1,2.34-2.27L388,44.27a6.85,6.85,0,0,1,7.25-5.82l5.07.27L416.06,25.1a8.45,8.45,0,0,1,5.52-2h32a32.34,32.34,0,0,1,19.75,6.67L491.2,43.51l24,5.75a6.7,6.7,0,0,1,5.25,6.45v6.63a1.83,1.83,0,0,1,1.85,1.78V72.9A2.31,2.31,0,0,1,520,75.16H502.8a14.24,14.24,0,0,1-28.1,0Z"/></clipPath><clipPath id="clip-path-4"><path class="cls-1" d="M812.1,79.31a8,8,0,1,0-8-8A8,8,0,0,0,812.1,79.31Zm-57,0a8,8,0,1,0-8-8A8,8,0,0,0,755.1,79.31Zm-24-77a3.83,3.83,0,0,1,1.2-2.82,3.89,3.89,0,0,1,2.84-1.18h64.59a3.91,3.91,0,0,1,2.84,1.18,3.83,3.83,0,0,1,1.2,2.82v12h10.09a9.87,9.87,0,0,1,3.69.81,9.58,9.58,0,0,1,3.18,2l12.49,12.37a8.37,8.37,0,0,1,1.42,1.88,11.54,11.54,0,0,1,.89,1.9,10.76,10.76,0,0,1,.41,2.32c.08,1,.13,1.69.15,2.15s0,1.25,0,2.38,0,1.85,0,2.19v20a3.89,3.89,0,0,1,2.84,1.18,3.83,3.83,0,0,1,1.2,2.82,4.93,4.93,0,0,1-.25,1.65,2.37,2.37,0,0,1-.85,1.16c-.4.29-.75.53-1,.72a3.62,3.62,0,0,1-1.49.37l-1.42.13c-.25,0-.78,0-1.6,0l-1.42,0h-4a15.37,15.37,0,0,1-4.73,11.31,16.25,16.25,0,0,1-22.84,0,15.37,15.37,0,0,1-4.73-11.31H771.47a15.37,15.37,0,0,1-4.73,11.31,16.25,16.25,0,0,1-22.84,0,15.37,15.37,0,0,1-4.73-11.31l-1.42,0c-.82,0-1.35,0-1.6,0l-1.42-.13a3.62,3.62,0,0,1-1.49-.37c-.29-.19-.64-.43-1-.72a2.37,2.37,0,0,1-.85-1.16,4.93,4.93,0,0,1-.25-1.65Zm96,36V36.43a1.89,1.89,0,0,0-.54-1.37L814.88,22.87a1.74,1.74,0,0,0-1.32-.56H804.1v16Z"/></clipPath><clipPath id="clip-path-5"><path class="cls-1" d="M1139.55,58.08c.34,0,.68,0,1,0a10.51,10.51,0,1,1-11,10.49,10.09,10.09,0,0,1,2.75-6.72l4.64,8.53a4.1,4.1,0,0,0,3.52,2.66,4.18,4.18,0,0,0,4-2,3.79,3.79,0,0,0-.28-4.28Zm-72,0a11.39,11.39,0,0,1,4.3.82l-7.22,6.89a3.81,3.81,0,0,0-1.07,3.81,4,4,0,0,0,2.92,2.79,4.27,4.27,0,0,0,4-1l7.22-6.72a10,10,0,0,1,.86,3.94,11,11,0,1,1-11-10.5Zm37-40c-4.36,0-4.36,5.64,0,6.16l4.26.65a62.54,62.54,0,0,0-23.33,12.34s.64-3.09-4.26-3.09c-14.17,0-20.78-1-20.78,5.2-9.27,0-10.9,3.63-10.9,10.38a77.17,77.17,0,0,1,13.28,1c-7.58,2.41-13.28,9.27-13.28,17.2,0,9.87,8.72,18.18,19.07,18.18s19.08-8.31,19.08-18.18a16.25,16.25,0,0,0-.34-3.57,23.55,23.55,0,0,0,6.81,1H1109c4.36,0,10.8-1.62,12.43-9.41l1.87-9.25,4.09,7.3a18,18,0,0,0-7,14c0,9.87,8.72,18.18,19.07,18.18s19.08-8.31,19.08-18.18-8.72-18.18-19.08-18.18a18.67,18.67,0,0,0-4.93.65l-8.69-16.07c0-.12,0-.33,0-.48a22.48,22.48,0,0,0,3.75.32c7.08,0,7.15,0,7.15-7.79s-.07-7.79-7.15-7.79c-4.9,0-9,1.57-11.41,3.74C1116.27,21.59,1106.08,18.07,1104.59,18.07Z"/></clipPath><clipPath id="clip-path-6"><path class="cls-1" d="M118.69,65.57a6,6,0,1,1-5.5,6A5.77,5.77,0,0,1,118.69,65.57Zm-82,0a6,6,0,0,1,0,12,6,6,0,0,1,0-12Zm28.5-44h13.4c2.41,0,2.9.24,3.6,1.42a5.81,5.81,0,0,0,.4.61l8.6,11h-26Zm-35.85,0H52.19v13h-30l2.38-9.35A5.91,5.91,0,0,1,29.34,21.57Zm29-14a5.41,5.41,0,0,0-.79.21H29.8c-8.23,0-14.74,5.87-16.81,13.5l-.2.21L8.44,39.36a6.85,6.85,0,0,0-.2,2.7V63.67a6.44,6.44,0,0,0,3.76,6l9.1,3.53c1,8.16,7.52,14.34,15.63,14.34,7.75,0,14-5.67,15.43-13.3H103.6c1.45,7.63,7.67,13.3,15.43,13.3,8.31,0,14.83-6.49,15.63-15L138,70.32a8.33,8.33,0,0,0,3.17-6.65V52.24a6.07,6.07,0,0,0-4.36-5.82L108.35,36.24,92.72,15.67l-.4-.62-.2.21A16.38,16.38,0,0,0,78.47,7.78H60.07A6,6,0,0,0,58.29,7.57Z"/></clipPath><clipPath id="clip-path-7"><rect class="cls-1" x="-429.81" y="-162.93" width="1280" height="1219"/></clipPath></defs><title>Untitled-1</title><g class="cls-4"><rect class="cls-5" x="-489.27" y="-158.43" width="1280" height="1219"/></g><path class="cls-6" d="M299.23,81.07a7.5,7.5,0,1,0-7.5-7.5A7.5,7.5,0,0,0,299.23,81.07Zm-81,0a7.5,7.5,0,1,0-7.5-7.5A7.5,7.5,0,0,0,218.23,81.07Zm70-41L275.89,24.78H200.32a.23.23,0,0,0-.23.23V40.24a.22.22,0,0,0,.23.22h87.79a.22.22,0,0,0,.22-.22A.19.19,0,0,0,288.28,40.1ZM231.56,72.79a13.62,13.62,0,0,1-27.23,0h-10.7a.9.9,0,0,1-.9-.9V19a.9.9,0,0,1,.9-.9h86.12a.89.89,0,0,1,.68.31L301,42.23l25.95,3.25a.91.91,0,0,1,.79.9V71.89a.9.9,0,0,1-.9.9H313.26a13.62,13.62,0,0,1-27.23,0Z"/><g class="cls-10"><g class="cls-11"><rect x="3.19" y="2.57" width="143" height="90"/></g></g></svg>