<svg xmlns="http://www.w3.org/2000/svg" viewBox="0 0 48 48"><path fill="#FFF9C4" d="M48 24c0 7.18-10.747 13-23.999 13C10.745 37 0 31.18 0 24s10.745-13 24.001-13C37.253 11 48 16.82 48 24z"/><ellipse cx="23.992" cy="23.99" fill="#00695C" rx="22" ry="11"/><path fill="#FFF9C4" d="M14.129 21.556c-.043.137-.39.102-.39.102h-1.505s1.395-3.88 1.507-4.174c.199-.52.318-.484.318-.484H11.98c.257.129.029.635.029.635s-1.665 4.839-1.781 5.081c-.116.242-.203.273-.203.273h3.6l.504-1.433zM38 19h-3.963l-.483 1.402h2.565l-2.926 1.029L33 22l4.502-1.5zM21.705 22.607c.101-.273 1-2.828 1-2.828l.391 3.204h1.536l2.013-5.699s.082-.267.195-.267l-1.632-.005s.047.197-.011.348c-.058.151-.985 2.737-.985 2.737l-.362-3.085h-1.753s.091.151.033.317l-1.858 5.323s-.116.331-.218.331h1.695a.452.452 0 01-.044-.376zM13 25l-4.503 1.501L8 28h3.963l.482-1.402H9.88l2.926-1.029zM31.427 28.647l.348-.969h1.274s.27-.02.329.061l.521-1.532s-.038.138-.386.138h-1.236l.368-1.07h1.564s.212-.031.289.141L35 24h-3.766s.135.125-.039.63c-.174.505-1.7 4.805-1.7 4.805s-.27.565-.347.565h3.882l.464-1.434s-.058.081-.425.081h-1.642zM30.906 24.003h-2.223s.174.121.039.343c-.135.222-2.111 3.312-2.111 3.312l.025-3.116s-.004-.5.188-.542l-1.956.003s.144.081.144.464v5.19s-.02.284-.122.343h1.553s0-.121.154-.323c.155-.202 3.381-4.725 3.381-4.725s.735-.949.928-.949zM39.856 26.315c.741-2.432-1.618-2.314-1.618-2.314h-2.376c.174.202.039.626.039.626s-1.549 4.463-1.666 4.807c-.116.344-.338.563-.338.563l1.975.003c-.144.003-.044-.368-.044-.368l.606-1.713.875 1.859c.058.122.029.222.029.222h2.097c-.193 0-.406-.384-.406-.384l-1.008-1.891c1.411-.001 1.835-1.41 1.835-1.41zm-1.676-.254c-.217.581-.927.525-.927.525h-.367l.386-1.191h.524s.64-.019.384.666zM29.73 17.014h-1.926c0 .001.144.242-.044.801-.188.56-1.666 4.718-1.666 4.718s-.117.391-.275.467l2.318-.003s2.81.108 3.68-2.975c-.001.001 1.1-3.039-2.087-3.008zm.203 3.265c-.491 1.248-1.221 1.338-1.615 1.338-.26 0-.268.002-.268.002l1.13-3.321h.435c-.001.001 1.125-.069.318 1.981zM19.857 22.993s-.138-.081-.163-.319l-.233-5.262s-.01-.336.143-.407h-1.84s.129.166-.117.544-3.389 5.242-3.389 5.242-.062.125-.221.196h1.858s-.006-.149.043-.245c.088-.175.319-.596.319-.596h1.87l.004.526s.01.181-.128.321h1.854zm-2.798-2.197l1.033-1.754.015 1.754h-1.048zM18.453 26.262C19.148 23.94 16.808 24 16.808 24h-2.395c.174.202.038.626.038.626l-1.603 4.79c-.116.343-.329.583-.329.583l1.894.001c-.058 0-.058-.195-.058-.195l.68-1.886.905 1.858c.057.121.028.223.028.223h2.025c-.193 0-.392-.384-.392-.384l-1.008-1.892c1.409 0 1.86-1.462 1.86-1.462zm-1.652-.204c-.264.594-.979.528-.979.528h-.367l.393-1.206s.211-.003.399-.003c.863 0 .554.681.554.681zM22.209 24.025c-1.848 0-3.053 1.396-3.365 3.131-.286 1.596.62 2.869 2.113 2.869 2.09 0 3.334-2.041 3.334-3.506 0-1.535-.634-2.494-2.082-2.494zm.274 3.18c-.299 1.193-.873 1.567-1.394 1.471-.709-.131-.587-1.226-.472-1.731.251-1.106.869-1.636 1.331-1.58.152.018.989.034.535 1.84z"/></svg>