<svg id="Layer_1" data-name="Layer 1" xmlns="http://www.w3.org/2000/svg" xmlns:xlink="http://www.w3.org/1999/xlink" viewBox="0 0 122.35 82.07"><defs><style>.cls-1{fill:none;}.cls-2{clip-path:url(#clip-path);}.cls-3{clip-path:url(#clip-path-2);}.cls-4{clip-path:url(#clip-path-3);}.cls-5{clip-path:url(#clip-path-4);}.cls-6{clip-path:url(#clip-path-5);}</style><clipPath id="clip-path"><path class="cls-1" d="M-393.63,66.5a6.5,6.5,0,0,0,6.5-6.5,6.5,6.5,0,0,0-6.5-6.5,6.5,6.5,0,0,0-6.5,6.5A6.5,6.5,0,0,0-393.63,66.5Zm-58,0a6.5,6.5,0,0,0,6.5-6.5,6.5,6.5,0,0,0-6.5-6.5,6.5,6.5,0,0,0-6.5,6.5A6.5,6.5,0,0,0-451.63,66.5Zm4-42.71V1.73l-26.1-.14c-1.83,0-2.25,1.53-2.55,2.41l-.54,19.67ZM-404,24l-8.66-14.62c-4.43-7.48-11.72-7.72-17.21-7.72l-13.26.07v22.1Zm-3.93,34.11h-29.53v.48c0,8.23-6.41,14.93-14.3,14.93s-14.3-6.7-14.3-14.93c0-.16,0-.32,0-.48h-4.82v-.25c-10.08-1.57-12.37-10.18-12.27-18h0l.09-2.95c-2.71-.71-6.06-3.08-6.06-5.9V14.36a6,6,0,0,1,5.88-6.14h1l.09-4.78,0-.28c.37-3.16,2.6-7.49,8.4-7.49l44.93-.17c10.65,0,17.07,4.12,21.24,10.86,10,16.18,0,0,10.9,17.65l23.92.1c16.92,0,22.25,33.87-1.11,33.87-.77,0-.78,0-1.6.06v.05h-3.92v.48c0,8.23-6.41,14.93-14.3,14.93s-14.3-6.7-14.3-14.93C-407.95,58.41-407.94,58.25-407.94,58.09Z"/></clipPath><clipPath id="clip-path-2"><path class="cls-1" d="M-68.4,67.5a7,7,0,0,0,7-7,7,7,0,0,0-7-7,7,7,0,0,0-7,7A7,7,0,0,0-68.4,67.5Zm-64,0a7,7,0,0,0,7-7,7,7,0,0,0-7-7,7,7,0,0,0-7,7A7,7,0,0,0-132.4,67.5Zm49-57v15h26c-3-5.19-7.32-11.21-12.36-15Zm-69.15-16h86.1a5.29,5.29,0,0,1,3.11.89C-49.28,5.58-41.4,28.79-41.4,28.79V51.64A11.56,11.56,0,0,1-53.1,63.07h-.37A14.49,14.49,0,0,1-67.73,74.5,14.5,14.5,0,0,1-82,63.07h-35.83A14.49,14.49,0,0,1-132.08,74.5a14.5,14.5,0,0,1-14.26-11.43h-.36a11.56,11.56,0,0,1-11.7-11.43V.21A5.78,5.78,0,0,1-152.55-5.5Zm77.72,69.16a8.89,8.89,0,0,1-.57-2.89V61A6.38,6.38,0,0,0-74.83,63.66Z"/></clipPath><clipPath id="clip-path-3"><path class="cls-1" d="M-229.13,66.24a8,8,0,0,0,8-8,8,8,0,0,0-8-8,8,8,0,0,0-8,8A8,8,0,0,0-229.13,66.24Zm-57,0a8,8,0,0,0,8-8,8,8,0,0,0-8-8,8,8,0,0,0-8,8A8,8,0,0,0-286.13,66.24Zm-24-77a3.82,3.82,0,0,1,1.2-2.81,3.9,3.9,0,0,1,2.84-1.19h64.59a3.92,3.92,0,0,1,2.84,1.19,3.82,3.82,0,0,1,1.2,2.81v12h10.09a9.79,9.79,0,0,1,3.69.81,9.63,9.63,0,0,1,3.19,2L-208,16.43a8.27,8.27,0,0,1,1.41,1.87,11.6,11.6,0,0,1,.89,1.91,10.54,10.54,0,0,1,.41,2.31c.08,1,.13,1.7.16,2.16s0,1.25,0,2.37,0,1.86,0,2.19v20a3.9,3.9,0,0,1,2.84,1.19,3.82,3.82,0,0,1,1.2,2.81,5,5,0,0,1-.25,1.66,2.34,2.34,0,0,1-.85,1.15c-.4.29-.75.53-1,.72a3.59,3.59,0,0,1-1.49.38l-1.42.12c-.25,0-.78,0-1.6,0l-1.42,0h-4A15.34,15.34,0,0,1-218,68.55a15.61,15.61,0,0,1-11.42,4.69,15.63,15.63,0,0,1-11.42-4.69,15.34,15.34,0,0,1-4.73-11.31h-24.22a15.34,15.34,0,0,1-4.73,11.31,15.61,15.61,0,0,1-11.42,4.69,15.6,15.6,0,0,1-11.41-4.69A15.3,15.3,0,0,1-302,57.24l-1.42,0c-.82,0-1.36,0-1.61,0l-1.42-.12a3.49,3.49,0,0,1-1.48-.38c-.3-.19-.65-.43-1-.72a2.36,2.36,0,0,1-.86-1.15,5.27,5.27,0,0,1-.25-1.66Zm96,36V23.36a1.89,1.89,0,0,0-.54-1.37L-226.35,9.8a1.78,1.78,0,0,0-1.32-.56h-9.46v16Z"/></clipPath><clipPath id="clip-path-4"><path class="cls-1" d="M98.32,45c.34,0,.68,0,1,0a10.79,10.79,0,0,1,11,10.5,11,11,0,0,1-22,0,10.12,10.12,0,0,1,2.75-6.73l4.64,8.53A4.09,4.09,0,0,0,99.27,60a4.17,4.17,0,0,0,4-2A3.81,3.81,0,0,0,103,53.7Zm-72,0a11.59,11.59,0,0,1,4.3.82l-7.22,6.89a3.82,3.82,0,0,0-1.07,3.81,4,4,0,0,0,2.92,2.79,4.26,4.26,0,0,0,4-1l7.22-6.73a10.06,10.06,0,0,1,.86,3.94,10.79,10.79,0,0,1-11,10.5,10.79,10.79,0,0,1-11-10.5A10.79,10.79,0,0,1,26.35,45Zm37-40c-4.36,0-4.36,5.65,0,6.17l4.26.65A62.6,62.6,0,0,0,44.29,24.15s.64-3.08-4.26-3.08c-14.17,0-20.78-1-20.78,5.19-9.26,0-10.9,3.64-10.9,10.39a78.32,78.32,0,0,1,13.28,1C14.05,40,8.35,46.89,8.35,54.82,8.35,64.69,17.07,73,27.43,73S46.5,64.69,46.5,54.82a16.25,16.25,0,0,0-.34-3.57,23.54,23.54,0,0,0,6.81,1H67.79c4.36,0,10.8-1.63,12.43-9.42l1.88-9.25,4.08,7.31a18,18,0,0,0-7,14C79.2,64.69,87.92,73,98.28,73s19.07-8.31,19.07-18.18-8.72-18.17-19.07-18.17a18.75,18.75,0,0,0-4.94.65L84.65,21.23c0-.12,0-.34,0-.49a21.53,21.53,0,0,0,3.75.33c7.08,0,7.15,0,7.15-7.79s-.07-7.79-7.15-7.79c-4.9,0-9,1.56-11.41,3.73C75,8.53,64.85,5,63.36,5Z"/></clipPath><clipPath id="clip-path-5"><rect class="cls-1" x="-934.65" y="-332.5" width="1280" height="1219"/></clipPath></defs><title>Untitled-1</title><g class="cls-5"><g class="cls-6"><rect x="3.35" width="119" height="78"/></g></g></svg>