<svg id="Layer_1" data-name="Layer 1" xmlns="http://www.w3.org/2000/svg" xmlns:xlink="http://www.w3.org/1999/xlink" viewBox="0 0 150.52 80.48"><defs><style>.cls-1,.cls-2,.cls-5,.cls-6{fill:none;}.cls-2,.cls-5,.cls-6{stroke:#000;stroke-miterlimit:10;stroke-width:2px;}.cls-2{clip-rule:evenodd;}.cls-3{clip-path:url(#clip-path);}.cls-4{clip-path:url(#clip-path-2);}.cls-6{fill-rule:evenodd;}.cls-7{clip-path:url(#clip-path-3);}.cls-8{clip-path:url(#clip-path-4);}.cls-9{clip-path:url(#clip-path-5);}.cls-10{clip-path:url(#clip-path-6);}.cls-11{clip-path:url(#clip-path-7);}.cls-12{clip-path:url(#clip-path-8);}.cls-13{clip-path:url(#clip-path-9);}</style><clipPath id="clip-path"><path class="cls-1" d="M-512.79,18.41l8.07-26h60.85l8.08,26Zm69.5,22a7.5,7.5,0,0,1-7.5-7.5,7.5,7.5,0,0,1,7.5-7.5,7.5,7.5,0,0,1,7.5,7.5A7.5,7.5,0,0,1-443.29,40.41Zm-62,0a7.5,7.5,0,0,1-7.5-7.5,7.5,7.5,0,0,1,7.5-7.5,7.5,7.5,0,0,1,7.5,7.5A7.5,7.5,0,0,1-505.29,40.41Zm70.65-52.16a9.72,9.72,0,0,0-9.2-6.84h-60.91a9.72,9.72,0,0,0-9.2,6.84l-8.84,27.35V66.41a4.93,4.93,0,0,0,4.85,5h9.7a4.93,4.93,0,0,0,4.85-5v-10h58.2v10a4.93,4.93,0,0,0,4.85,5h9.7a4.93,4.93,0,0,0,4.85-5V15.6Z"/></clipPath><clipPath id="clip-path-2"><path class="cls-2" d="M-78,66.41a7.5,7.5,0,0,0,7.5-7.5,7.5,7.5,0,0,0-7.5-7.5,7.5,7.5,0,0,0-7.5,7.5A7.5,7.5,0,0,0-78,66.41Zm-81,0a7.5,7.5,0,0,0,7.5-7.5,7.5,7.5,0,0,0-7.5-7.5,7.5,7.5,0,0,0-7.5,7.5A7.5,7.5,0,0,0-159,66.41Zm70.05-41-12.39-15.31h-75.58a.23.23,0,0,0-.23.22V25.58a.23.23,0,0,0,.23.23h87.79a.23.23,0,0,0,.23-.23A.24.24,0,0,0-89,25.44Zm-56.73,32.7a13.52,13.52,0,0,1-13.61,13.27,13.53,13.53,0,0,1-13.62-13.27h-10.69a.9.9,0,0,1-.9-.9V4.31a.9.9,0,0,1,.9-.9h86.11a1,1,0,0,1,.69.31l20.56,23.86,25.94,3.25a.91.91,0,0,1,.8.9V57.24a.91.91,0,0,1-.91.9H-64A13.53,13.53,0,0,1-77.62,71.41,13.53,13.53,0,0,1-91.24,58.14Z"/></clipPath><clipPath id="clip-path-3"><path class="cls-1" d="M112,65.41a7,7,0,1,0-7-7A7,7,0,0,0,112,65.41Zm-73,0a7,7,0,1,0-7-7A7,7,0,0,0,39,65.41Zm9.43-40.29v-9.6h-2.9a4.12,4.12,0,0,0-2.72,1L33.73,24.4Zm7.42.36,44.66,2.17L92,21.06a26.8,26.8,0,0,0-16.38-5.54H55.89Zm41.54,35H52.72a14,14,0,0,1-14,11.9,14,14,0,0,1-14-11.9H8.4A2.32,2.32,0,0,1,6,58.24V50a2.29,2.29,0,0,1,2.35-2.27l2.32-18.07A6.85,6.85,0,0,1,18,23.8l5.07.26L38.8,10.45a8.43,8.43,0,0,1,5.52-2h32a32.42,32.42,0,0,1,19.75,6.67l17.85,13.77,24,5.75a6.71,6.71,0,0,1,5.25,6.45v6.64A1.81,1.81,0,0,1,145,49.46v8.78a2.32,2.32,0,0,1-2.36,2.27H125.53a14.24,14.24,0,0,1-28.1,0Z"/></clipPath><clipPath id="clip-path-4"><rect class="cls-1" x="-921.96" y="-170.59" width="1280" height="1219"/></clipPath><clipPath id="clip-path-5"><path class="cls-1" d="M270.33,64.91a6.5,6.5,0,1,0-6.5-6.5A6.5,6.5,0,0,0,270.33,64.91Zm-58,0a6.5,6.5,0,1,0-6.5-6.5A6.5,6.5,0,0,0,212.33,64.91Zm4-42.7V.15L190.26,0c-1.84,0-2.26,1.53-2.56,2.41l-.53,19.67Zm43.6.18c-8.66-14.62,0,.08-8.66-14.62C246.86.29,239.58.05,234.08.05L220.82.12V22.23ZM256,56.5H226.49c0,.16,0,.32,0,.49,0,8.23-6.42,14.92-14.3,14.92S197.9,65.22,197.9,57V56.5h-4.82v-.25c-10.08-1.57-12.37-10.18-12.26-18h0l.08-2.94c-2.71-.72-6.06-3.09-6.06-5.91V12.78a6,6,0,0,1,5.89-6.15h1l.09-4.78,0-.28c.37-3.16,2.61-7.49,8.4-7.49l44.93-.17c10.65,0,17.07,4.12,21.25,10.87,10,16.17,0,0,10.89,17.64l23.92.1c16.92,0,22.25,33.87-1.1,33.87-.78,0-.79,0-1.61.06v0h-3.92c0,.16,0,.32,0,.49,0,8.23-6.42,14.92-14.3,14.92S256,65.22,256,57Z"/></clipPath><clipPath id="clip-path-6"><path class="cls-1" d="M595.56,65.91a7,7,0,1,0-7-7A7,7,0,0,0,595.56,65.91Zm-64,0a7,7,0,1,0-7-7A7,7,0,0,0,531.56,65.91Zm49-57v15h26c-3-5.18-7.32-11.21-12.35-15Zm-69.15-16h86.1a5.29,5.29,0,0,1,3.11.89C614.68,4,622.56,27.2,622.56,27.2V50.05a11.56,11.56,0,0,1-11.7,11.43h-.37a14.6,14.6,0,0,1-28.51,0H546.14a14.6,14.6,0,0,1-28.51,0h-.37a11.56,11.56,0,0,1-11.7-11.43V-1.37A5.79,5.79,0,0,1,511.41-7.09Zm77.72,69.16a8.89,8.89,0,0,1-.57-2.89v.23A6.38,6.38,0,0,0,589.13,62.07Z"/></clipPath><clipPath id="clip-path-7"><path class="cls-1" d="M434.83,64.65a8,8,0,1,0-8-8A8,8,0,0,0,434.83,64.65Zm-57,0a8,8,0,1,0-8-8A8,8,0,0,0,377.83,64.65Zm-24-77a3.82,3.82,0,0,1,1.2-2.81,3.92,3.92,0,0,1,2.84-1.19h64.59a3.9,3.9,0,0,1,2.84,1.19,3.82,3.82,0,0,1,1.2,2.81v12h10.09a9.79,9.79,0,0,1,3.69.81,9.8,9.8,0,0,1,3.19,2L456,14.84a8.86,8.86,0,0,1,1.42,1.87,11.47,11.47,0,0,1,.88,1.91,10,10,0,0,1,.41,2.31c.08,1,.14,1.7.16,2.16s0,1.25,0,2.37,0,1.86,0,2.19v20a3.92,3.92,0,0,1,2.84,1.19,3.85,3.85,0,0,1,1.19,2.81,5,5,0,0,1-.25,1.66,2.34,2.34,0,0,1-.85,1.15c-.4.3-.75.54-1,.72a3.44,3.44,0,0,1-1.48.38l-1.42.12c-.25,0-.79,0-1.61,0l-1.42,0h-4A15.3,15.3,0,0,1,446,67a16.24,16.24,0,0,1-22.83,0,15.3,15.3,0,0,1-4.73-11.31H394.2A15.3,15.3,0,0,1,389.47,67a16.24,16.24,0,0,1-22.83,0,15.3,15.3,0,0,1-4.73-11.31l-1.42,0c-.82,0-1.36,0-1.61,0l-1.42-.12a3.39,3.39,0,0,1-1.48-.38c-.3-.18-.64-.42-1-.72a2.29,2.29,0,0,1-.85-1.15,4.94,4.94,0,0,1-.26-1.66Zm96,36V21.78a1.92,1.92,0,0,0-.54-1.38L437.61,8.21a1.74,1.74,0,0,0-1.31-.56h-9.47v16Z"/></clipPath><clipPath id="clip-path-8"><path class="cls-1" d="M762.28,43.42c.34,0,.69,0,1,0a10.79,10.79,0,0,1,11,10.5,11,11,0,0,1-22,0,10.07,10.07,0,0,1,2.75-6.72l4.64,8.52a4.1,4.1,0,0,0,3.53,2.66,4.17,4.17,0,0,0,4-2,3.78,3.78,0,0,0-.29-4.28Zm-72,0a11.55,11.55,0,0,1,4.3.82l-7.22,6.89a3.84,3.84,0,0,0-1.07,3.81,4,4,0,0,0,2.92,2.79,4.24,4.24,0,0,0,4-1L700.45,50a10.06,10.06,0,0,1,.86,3.94,11,11,0,0,1-22,0A10.79,10.79,0,0,1,690.31,43.41Zm37-40c-4.36,0-4.36,5.65,0,6.17l4.26.65a62.6,62.6,0,0,0-23.33,12.33s.65-3.08-4.26-3.08c-14.17,0-20.78-1-20.78,5.19-9.26,0-10.9,3.64-10.9,10.39a78.53,78.53,0,0,1,13.29,1c-7.59,2.42-13.29,9.28-13.29,17.2,0,9.87,8.72,18.18,19.08,18.18s19.07-8.31,19.07-18.18a16.31,16.31,0,0,0-.34-3.57,23.59,23.59,0,0,0,6.81,1h14.82c4.36,0,10.8-1.62,12.43-9.41L746.06,32l4.09,7.31a18,18,0,0,0-7,13.95c0,9.87,8.72,18.18,19.08,18.18s19.07-8.31,19.07-18.18-8.72-18.17-19.07-18.17a18.8,18.8,0,0,0-4.94.65l-8.69-16.07c0-.12,0-.34,0-.49a21.53,21.53,0,0,0,3.75.33c7.08,0,7.15,0,7.15-7.79s-.07-7.79-7.15-7.79c-4.9,0-9,1.56-11.41,3.73C739,6.94,728.81,3.41,727.32,3.41Z"/></clipPath><clipPath id="clip-path-9"><path class="cls-1" d="M-258.58,50.91a5.77,5.77,0,0,1,5.5,6,5.77,5.77,0,0,1-5.5,6,5.77,5.77,0,0,1-5.5-6A5.77,5.77,0,0,1-258.58,50.91Zm-82,0a5.77,5.77,0,0,1,5.5,6,5.77,5.77,0,0,1-5.5,6,5.77,5.77,0,0,1-5.5-6A5.77,5.77,0,0,1-340.58,50.91Zm28.5-44h13.4c2.42,0,2.91.25,3.6,1.42a6.41,6.41,0,0,0,.4.61l8.6,11h-26Zm-35.85,0h22.85v13h-30l2.38-9.34A5.94,5.94,0,0,1-347.93,6.91Zm29-14c-.27.06-.54.13-.8.21h-27.69c-8.23,0-14.74,5.88-16.82,13.51l-.2.21-4.35,17.87a7,7,0,0,0-.2,2.7V49a6.42,6.42,0,0,0,3.76,6l9.1,3.53c1.06,8.17,7.53,14.34,15.63,14.34,7.76,0,14-5.66,15.43-13.3h51.44c1.46,7.64,7.68,13.3,15.43,13.3,8.31,0,14.83-6.49,15.63-15l3.36-2.28A8.33,8.33,0,0,0-236.08,49V37.59a6.07,6.07,0,0,0-4.35-5.82l-28.49-10.18L-284.55,1l-.4-.63-.19.21a16.42,16.42,0,0,0-13.65-7.48h-18.4A6.29,6.29,0,0,0-319-7.09Z"/></clipPath></defs><title>Untitled-1</title><g class="cls-4"><rect class="cls-5" x="-866.53" y="-173.09" width="1280" height="1219"/></g><path class="cls-6" d="M-78,66.41a7.5,7.5,0,0,0,7.5-7.5,7.5,7.5,0,0,0-7.5-7.5,7.5,7.5,0,0,0-7.5,7.5A7.5,7.5,0,0,0-78,66.41Zm-81,0a7.5,7.5,0,0,0,7.5-7.5,7.5,7.5,0,0,0-7.5-7.5,7.5,7.5,0,0,0-7.5,7.5A7.5,7.5,0,0,0-159,66.41Zm70.05-41-12.39-15.31h-75.58a.23.23,0,0,0-.23.22V25.58a.23.23,0,0,0,.23.23h87.79a.23.23,0,0,0,.23-.23A.24.24,0,0,0-89,25.44Zm-56.73,32.7a13.52,13.52,0,0,1-13.61,13.27,13.53,13.53,0,0,1-13.62-13.27h-10.69a.9.9,0,0,1-.9-.9V4.31a.9.9,0,0,1,.9-.9h86.11a1,1,0,0,1,.69.31l20.56,23.86,25.94,3.25a.91.91,0,0,1,.8.9V57.24a.91.91,0,0,1-.91.9H-64A13.53,13.53,0,0,1-77.62,71.41,13.53,13.53,0,0,1-91.24,58.14Z"/><g class="cls-7"><g class="cls-8"><rect x="1.04" y="3.41" width="149" height="74"/></g></g></svg>