<svg id="Layer_1" data-name="Layer 1" xmlns="http://www.w3.org/2000/svg" xmlns:xlink="http://www.w3.org/1999/xlink" viewBox="0 0 147.68 87.57"><defs><style>.cls-1,.cls-2,.cls-3,.cls-8{fill:none;}.cls-2,.cls-3,.cls-7,.cls-8{stroke:#000;stroke-miterlimit:10;stroke-width:2px;}.cls-2{clip-rule:evenodd;}.cls-4{clip-path:url(#clip-path);}.cls-5{clip-path:url(#clip-path-2);}.cls-6{clip-path:url(#clip-path-3);}.cls-8{fill-rule:evenodd;}.cls-9{clip-path:url(#clip-path-4);}.cls-10{clip-path:url(#clip-path-5);}.cls-11{clip-path:url(#clip-path-6);}.cls-12{clip-path:url(#clip-path-7);}</style><clipPath id="clip-path"><path class="cls-1" d="M-320.58,25.5l8.08-26h60.85l8.07,26Zm69.5,22a7.5,7.5,0,0,1-7.5-7.5,7.5,7.5,0,0,1,7.5-7.5,7.5,7.5,0,0,1,7.5,7.5A7.5,7.5,0,0,1-251.08,47.5Zm-62,0a7.5,7.5,0,0,1-7.5-7.5,7.5,7.5,0,0,1,7.5-7.5,7.5,7.5,0,0,1,7.5,7.5A7.5,7.5,0,0,1-313.08,47.5Zm70.66-52.17a9.72,9.72,0,0,0-9.2-6.83h-60.91a9.74,9.74,0,0,0-9.21,6.83l-8.84,27.36V73.5a4.93,4.93,0,0,0,4.85,5h9.7a4.93,4.93,0,0,0,4.85-5v-10H-253v10a4.93,4.93,0,0,0,4.85,5h9.7a4.93,4.93,0,0,0,4.85-5V22.69Z"/></clipPath><clipPath id="clip-path-2"><path class="cls-2" d="M114.18,73.5a7.5,7.5,0,1,0-7.5-7.5A7.5,7.5,0,0,0,114.18,73.5Zm-81,0a7.5,7.5,0,1,0-7.5-7.5A7.5,7.5,0,0,0,33.18,73.5Zm70.05-41L90.85,17.22H15.27a.22.22,0,0,0-.23.22V32.67a.23.23,0,0,0,.23.23h87.79a.22.22,0,0,0,.22-.23A.19.19,0,0,0,103.23,32.53ZM46.51,65.23a13.62,13.62,0,0,1-27.23,0H8.58a.91.91,0,0,1-.9-.91V11.4a.9.9,0,0,1,.9-.9H94.7a.89.89,0,0,1,.68.31l20.56,23.86,25.95,3.25a.9.9,0,0,1,.79.89V64.32a.9.9,0,0,1-.9.91H128.21a13.62,13.62,0,0,1-27.23,0Z"/></clipPath><clipPath id="clip-path-3"><rect class="cls-3" x="-674.32" y="-166" width="1280" height="1219"/></clipPath><clipPath id="clip-path-4"><path class="cls-1" d="M304.26,72.5a7,7,0,1,0-7-7A7,7,0,0,0,304.26,72.5Zm-73,0a7,7,0,1,0-7-7A7,7,0,0,0,231.26,72.5Zm9.43-40.3V22.61h-2.9a4.17,4.17,0,0,0-2.73,1L226,31.49Zm7.42.37,44.66,2.17-8.55-6.59a26.8,26.8,0,0,0-16.38-5.54H248.11Zm41.54,35H244.94a14.25,14.25,0,0,1-28.11,0H200.62a2.31,2.31,0,0,1-2.36-2.27V57.05a2.29,2.29,0,0,1,2.35-2.27l2.32-18.07a6.84,6.84,0,0,1,7.25-5.82l5.07.26L231,17.54a8.46,8.46,0,0,1,5.52-2h32a32.34,32.34,0,0,1,19.75,6.67l17.86,13.77,24,5.75a6.7,6.7,0,0,1,5.25,6.45v6.64a1.81,1.81,0,0,1,1.85,1.77v8.78a2.32,2.32,0,0,1-2.36,2.27H317.75a14.24,14.24,0,0,1-28.1,0Z"/></clipPath><clipPath id="clip-path-5"><path class="cls-1" d="M627.05,71.74a8,8,0,1,0-8-8A8,8,0,0,0,627.05,71.74Zm-57,0a8,8,0,1,0-8-8A8,8,0,0,0,570.05,71.74Zm-24-77a3.82,3.82,0,0,1,1.2-2.81,3.9,3.9,0,0,1,2.84-1.19h64.59a3.92,3.92,0,0,1,2.84,1.19,3.82,3.82,0,0,1,1.2,2.81v12h10.09a11,11,0,0,1,6.88,2.81l12.48,12.38a8.31,8.31,0,0,1,1.42,1.87,11.6,11.6,0,0,1,.89,1.91,10.54,10.54,0,0,1,.41,2.31c.08,1,.13,1.7.16,2.16s0,1.25,0,2.37,0,1.86,0,2.19v20a3.9,3.9,0,0,1,2.84,1.19,3.82,3.82,0,0,1,1.2,2.81,5,5,0,0,1-.25,1.66,2.34,2.34,0,0,1-.85,1.15c-.4.29-.75.53-1,.72a3.59,3.59,0,0,1-1.49.38l-1.42.12c-.25,0-.78,0-1.6,0l-1.42,0h-4a15.34,15.34,0,0,1-4.73,11.31,16.25,16.25,0,0,1-22.84,0,15.34,15.34,0,0,1-4.73-11.31H586.42a15.34,15.34,0,0,1-4.73,11.31,16.24,16.24,0,0,1-22.83,0,15.31,15.31,0,0,1-4.74-11.31l-1.41,0c-.82,0-1.36,0-1.61,0l-1.42-.12a3.49,3.49,0,0,1-1.48-.38q-.45-.29-1.05-.72a2.34,2.34,0,0,1-.85-1.15,5,5,0,0,1-.25-1.66Zm96,36V28.86a1.89,1.89,0,0,0-.54-1.37L629.83,15.3a1.78,1.78,0,0,0-1.32-.56h-9.46v16Z"/></clipPath><clipPath id="clip-path-6"><path class="cls-1" d="M954.5,50.51c.34,0,.68,0,1,0a10.51,10.51,0,1,1-11,10.5,10.12,10.12,0,0,1,2.75-6.73l4.64,8.53a4.09,4.09,0,0,0,3.52,2.66,4.17,4.17,0,0,0,4-2,3.81,3.81,0,0,0-.29-4.28Zm-72,0a11.59,11.59,0,0,1,4.3.82l-7.22,6.89A3.82,3.82,0,0,0,878.54,62a4,4,0,0,0,2.92,2.79,4.26,4.26,0,0,0,4-1l7.22-6.73a10.06,10.06,0,0,1,.86,3.94,11,11,0,1,1-11-10.5Zm37-40c-4.36,0-4.36,5.65,0,6.17l4.26.65a62.6,62.6,0,0,0-23.33,12.33s.64-3.08-4.26-3.08c-14.17,0-20.78-1-20.78,5.19-9.27,0-10.9,3.64-10.9,10.39a78.32,78.32,0,0,1,13.28,1c-7.58,2.41-13.28,9.27-13.28,17.2,0,9.87,8.72,18.18,19.07,18.18s19.08-8.31,19.08-18.18a16.25,16.25,0,0,0-.34-3.57,23.54,23.54,0,0,0,6.81,1H924c4.36,0,10.8-1.63,12.43-9.42l1.88-9.25,4.08,7.31a18,18,0,0,0-7,14c0,9.87,8.72,18.18,19.07,18.18s19.08-8.31,19.08-18.18-8.72-18.17-19.08-18.17a18.73,18.73,0,0,0-4.93.65l-8.69-16.07c0-.12,0-.34,0-.49a21.53,21.53,0,0,0,3.75.33c7.08,0,7.15,0,7.15-7.79S951.66,11,944.58,11c-4.9,0-9,1.56-11.41,3.73C931.22,14,921,10.5,919.54,10.5Z"/></clipPath><clipPath id="clip-path-7"><path class="cls-1" d="M-66.36,58a5.77,5.77,0,0,1,5.5,6,5.77,5.77,0,0,1-5.5,6,5.77,5.77,0,0,1-5.5-6A5.77,5.77,0,0,1-66.36,58Zm-82,0a5.77,5.77,0,0,1,5.5,6,5.77,5.77,0,0,1-5.5,6,5.77,5.77,0,0,1-5.5-6A5.77,5.77,0,0,1-148.36,58Zm28.5-44h13.4c2.41,0,2.9.25,3.6,1.42a4.93,4.93,0,0,0,.4.61l8.6,11h-26Zm-35.85,0h22.85V27h-30l2.38-9.34A5.93,5.93,0,0,1-155.71,14Zm29-14a5.41,5.41,0,0,0-.79.21h-27.7c-8.23,0-14.74,5.88-16.81,13.51l-.2.2-4.35,17.87a7.07,7.07,0,0,0-.2,2.71V56.1a6.44,6.44,0,0,0,3.76,6l9.1,3.53c1,8.17,7.52,14.34,15.63,14.34,7.75,0,14-5.66,15.43-13.3h51.44C-80,74.34-73.78,80-66,80c8.31,0,14.83-6.49,15.63-15L-47,62.75a8.33,8.33,0,0,0,3.17-6.65V44.68a6.06,6.06,0,0,0-4.36-5.82L-76.7,28.68-92.33,8.11l-.4-.63-.2.21A16.41,16.41,0,0,0-106.58.21H-125A6,6,0,0,0-126.76,0Z"/></clipPath></defs><title>Untitled-1</title><g class="cls-5"><g class="cls-6"><rect class="cls-7" x="2.68" y="5.5" width="145" height="78"/></g><rect class="cls-3" x="-674.32" y="-166" width="1280" height="1219"/></g><path class="cls-8" d="M114.18,73.5a7.5,7.5,0,1,0-7.5-7.5A7.5,7.5,0,0,0,114.18,73.5Zm-81,0a7.5,7.5,0,1,0-7.5-7.5A7.5,7.5,0,0,0,33.18,73.5Zm70.05-41L90.85,17.22H15.27a.22.22,0,0,0-.23.22V32.67a.23.23,0,0,0,.23.23h87.79a.22.22,0,0,0,.22-.23A.19.19,0,0,0,103.23,32.53ZM46.51,65.23a13.62,13.62,0,0,1-27.23,0H8.58a.91.91,0,0,1-.9-.91V11.4a.9.9,0,0,1,.9-.9H94.7a.89.89,0,0,1,.68.31l20.56,23.86,25.95,3.25a.9.9,0,0,1,.79.89V64.32a.9.9,0,0,1-.9.91H128.21a13.62,13.62,0,0,1-27.23,0Z"/></svg>