<svg xmlns="http://www.w3.org/2000/svg" viewBox="0 0 48 48"><path fill="#1565C0" d="M23.999 11.003C11.317 11.003 1 16.834 1 24.003s10.317 13 22.999 13c12.683 0 23.001-5.832 23.001-13s-10.318-13-23.001-13z"/><path fill="#CACEEB" d="M23.999 12.003c11.926 0 22.001 5.495 22.001 12s-10.075 12-22.001 12C12.074 36.003 2 30.507 2 24.003s10.074-12 21.999-12m0-2c-13.233 0-23.999 6.28-23.999 14s10.766 14 23.999 14c13.234 0 24.001-6.28 24.001-14s-10.767-14-24.001-14z"/><path fill="#FFF" d="M38.833 30.656a.129.129 0 0 0-.007-.04l-.003-.009a.12.12 0 0 0-.022-.035l-.001-.001a.2.2 0 0 0-.038-.029l-.013-.008a.438.438 0 0 0-.057-.026l-.012-.004a1.142 1.142 0 0 0-.068-.021l-.037-.01a.074.074 0 0 1-.014-.004h-.002a5.103 5.103 0 0 0-.427-.074c-.47-.067-1.73-.209-2.629-.371l-.123-.023-.089-.017a10.413 10.413 0 0 1-.221-.046c-.865-.195-.915-.914-1.042-1.266-.09-.255-.161-.62-.27-.802v-.001a.018.018 0 0 0-.004-.005.211.211 0 0 0-.02-.029l-.013-.017-.019-.019a.166.166 0 0 0-.014-.013.076.076 0 0 0-.023-.013l-.013-.007a.099.099 0 0 0-.038-.007.14.14 0 0 0-.061.015l-.019.011a.185.185 0 0 0-.032.025c-.007.007-.014.013-.02.021a.585.585 0 0 0-.018.026c-.08.12-.112.319-.138.399-.038.117-.238.862-.388 1.11-.151.248-.264.522-.853.64-.59.117-1.694.365-2.735.391l-.217.004-.078.001h-.216l-.09-.001c-.697-.011-1.201-.077-1.846-.16-.815-.105-1.568-.144-2.132-.405a.987.987 0 0 1-.101-.055l-.009-.006c-.493-.315-.754-1.097-.894-1.584-.107-.372-.188-.603-.258-.706v-.002l-.004-.005c-.009-.013-.018-.022-.026-.031l-.013-.013a.065.065 0 0 0-.037-.015c-.01 0-.021.006-.033.016a.255.255 0 0 0-.05.061l-.004.006v.001c-.086.132-.19.403-.263.648-.1.34-.364 1.346-.753 1.594s-1.042.391-2.208.509c0 0-1.3.104-1.938.266h-.002c-.209.054-.347.113-.343.178.003.067.126.129.316.186h.002c.553.165 1.656.281 1.889.311.196.024.748.09 1.221.167l.009.001a7.093 7.093 0 0 1 .504.098l.072.019.019.006c.026.008.05.015.07.023.351.131.59.235.728.64.138.404.476 1.606.476 1.606s.074.3.164.497v.001l.004.008c.008.017.016.034.025.049l.012.021c.008.013.015.025.023.035l.011.013c.007.009.015.016.022.023l.01.008c.01.007.021.012.031.012.01 0 .021-.005.031-.012l.01-.009.022-.023.01-.014a.566.566 0 0 0 .027-.044l.004-.006.03-.063.003-.007v-.001c.09-.209.164-.527.164-.527s.339-1.502.59-1.776c.251-.275.288-.379 1.405-.562l.489-.081.193-.032.211-.035.202-.033.17-.027c.112-.018.222-.034.331-.05l.134-.019.215-.029.142-.017.209-.023.094-.009.053-.005c.078-.007.155-.013.23-.017l.093-.005c.101-.005.2-.008.294-.008.841 0 1.004.013 1.517.078.516.066 1.619.21 2.058.353.439.144.59.47.703.771.113.3.364 1.097.364 1.097s.063.327.213.327a.087.087 0 0 0 .049-.014l.005-.003c.126-.076.199-.411.22-.522.121-.379.394-1.184.565-1.343.227-.209.39-.405 1.506-.548 1.117-.144 1.781-.288 2.17-.314a3.236 3.236 0 0 0 .464-.062l.021-.006a.673.673 0 0 0 .068-.023l.009-.004a.216.216 0 0 0 .048-.027l.006-.004a.127.127 0 0 0 .032-.034l.004-.008a.112.112 0 0 0 .012-.046z"/><path fill="#FFF" d="M44.4 25.473l.008-.009a.052.052 0 0 0 .009-.029.151.151 0 0 0-.013-.059.115.115 0 0 0-.021-.033l-.006-.008a.192.192 0 0 0-.046-.035l-.007-.004a.337.337 0 0 0-.06-.027l-.018-.007a.89.89 0 0 0-.085-.025l-.006-.002c-.03-.007-.062-.015-.098-.022h-.003a7.418 7.418 0 0 0-.38-.061c-.513-.069-1.458-.287-2.146-.442l-.06-.014-.141-.032c-.693-.154-.898-1.038-.898-1.038s-.168-.541-.327-.782v-.001l-.016-.022-.013-.018c-.009-.012-.018-.021-.026-.03l-.01-.011a.122.122 0 0 0-.028-.02l-.008-.005a.063.063 0 0 0-.034-.008.096.096 0 0 0-.034.011l-.006.004a.264.264 0 0 0-.029.023l-.009.01a.319.319 0 0 0-.027.033l-.01.014a.499.499 0 0 0-.017.024v.002c-.159.25-.348.839-.537 1.276-.243.564-1.012.692-1.422.756-.411.064-1.065.244-2.117.269-1.051.026-2.046-.166-2.046-.166-.833-.105-1.603-.144-2.18-.405-.578-.261-.872-1.123-1.026-1.645-.153-.523-.256-.77-.346-.77-.09 0-.256.392-.359.731-.103.339-.372 1.345-.77 1.594-.397.248-1.065.392-2.257.51 0 0-1.72.134-2.206.336a.883.883 0 0 0-.042.018l-.008.003-.039.02-.006.003a.146.146 0 0 0-.03.022l-.003.002a.08.08 0 0 0-.019.024l-.001.001a.046.046 0 0 0-.006.025c0 .009.003.017.008.026l.003.005a.098.098 0 0 0 .022.026.155.155 0 0 0 .033.024l.032.019.01.005.041.019.011.005.049.019.012.004.056.019.013.004.06.018.01.003c.578.16 1.671.271 1.906.3.281.034 1.278.147 1.767.262a2.322 2.322 0 0 1 .091.023l.014.004c.027.008.052.015.073.023.36.13.605.235.748.638.141.404.489 1.601.489 1.601s.075.299.168.495v.001l.004.008.029.057a.405.405 0 0 0 .036.053l.003.004a.154.154 0 0 0 .035.033.06.06 0 0 0 .034.013c.011 0 .022-.006.034-.014l.005-.004a.195.195 0 0 0 .028-.029l.007-.009.016-.023.012-.02a.973.973 0 0 0 .034-.066l.006-.012v-.002c.093-.208.168-.525.168-.525s.347-1.498.605-1.771c.258-.273.296-.377 1.443-.56.888-.141 1.769-.298 2.522-.362l-.001-.01.122-.009.128-.009c.12-.006.236-.01.348-.01.61.001 1.096.05 2.238.217.912.133 1.218.3 1.422.767l.02.046.025.064.019.051.02.06.022.067.038.125c.168.579.315 1.041.428 1.25a.744.744 0 0 0 .027.046l.007.011a.294.294 0 0 0 .028.036c.006.007.012.011.018.015.003.002.005.005.008.006a.043.043 0 0 0 .023.007c.116 0 .141-.166.256-.526l.044-.189.034-.138.006-.024c.036-.143.072-.27.108-.383l.01-.033.032-.096.021-.059.017-.047.008-.02.013-.033.03-.072.015-.036c.033-.073.066-.138.1-.195l.014-.023.04-.061.014-.02c.035-.049.072-.092.109-.13l.015-.015.044-.042.015-.013c.039-.034.079-.064.121-.093l.019-.013.048-.032.02-.013.066-.042c.41-.257 2.45-.487 2.45-.487s.167-.017.343-.051h.002l.027-.006.014-.003.05-.011.033-.008.034-.009.04-.011.026-.008.039-.013.022-.008a.529.529 0 0 0 .051-.023l.026-.016.014-.009c.007-.001.012-.008.018-.014z"/><path fill="#FFF" d="M19.088 24.037l.052-.142.058-.158.004-.01c.021-.056.044-.113.07-.173l.001-.003c.025-.058.052-.117.081-.177l.008-.016a2.4 2.4 0 0 1 .097-.177l.007-.012a2.5 2.5 0 0 1 .123-.187l.007-.01c.044-.06.091-.119.143-.178l.015-.017a2.53 2.53 0 0 1 .255-.245l.017-.014a3.045 3.045 0 0 1 .346-.237l.032-.018c.061-.034.125-.068.193-.099l.012-.005c.067-.031.137-.06.21-.088l.032-.012a3.95 3.95 0 0 1 .232-.076l.047-.014a4.16 4.16 0 0 1 .256-.064l.043-.009c.095-.02.192-.038.295-.053 2.081-.303 5.958-.713 5.958-.713l.029-.003.017-.002.046-.005.016-.002.035-.004a94.056 94.056 0 0 1 2.021-.199l.021-.002.138-.012.026-.002.251-.021.043-.003.115-.009.071-.006.108-.008.133-.01.102-.007.118-.008.07-.005.142-.009.013-.001.073-.004.166-.01.194-.01.093-.004.144-.006.084-.003.177-.005.036-.001.2-.003h.047a6.675 6.675 0 0 1 .352.008c1.297.071 2.749.25 3.112.303l.129.019a10.19 10.19 0 0 0 .129.021l.082.017.037.008c.036.009.072.018.109.029l.032.01c.033.011.065.022.097.035l.023.009c.037.016.074.034.11.054l.03.017c.037.022.073.045.107.071l.01.009c.032.025.062.053.092.083l.031.032c.013.014.025.03.038.046a.609.609 0 0 1 .031.04c.013.018.025.038.037.057l.025.04c.019.035.038.071.054.11.254.594.534 1.712.534 1.712s.089.345.229.345.229-.321.229-.321.42-1.355.573-1.7l.035-.073.016-.029.027-.045.02-.03a.938.938 0 0 1 .038-.05l.016-.02c.011-.013.025-.026.038-.039l.033-.033.023-.02a1.575 1.575 0 0 1 .087-.068.983.983 0 0 1 .096-.06l.021-.011a1.344 1.344 0 0 1 .23-.101l.051-.018a2.726 2.726 0 0 1 .337-.091l.065-.013c.048-.01.098-.019.15-.027l.068-.011c.076-.012.154-.023.239-.032 1.133-.131 2.33-.368 2.33-.368s.305-.007.47-.089h.001l.005-.003a.226.226 0 0 0 .026-.016l.012-.008c.009-.006.016-.013.023-.02l.008-.008a.128.128 0 0 0 .015-.025l.005-.008a.094.094 0 0 0-.002-.076.067.067 0 0 0-.007-.011.124.124 0 0 0-.017-.023l-.011-.01a.235.235 0 0 0-.025-.019l-.014-.009a.36.36 0 0 0-.034-.017l-.014-.006a.65.65 0 0 0-.047-.017l-.008-.003c-.18-.055-.425-.059-.425-.059l-2.597-.392-.01-.001h-.003a1.477 1.477 0 0 1-.082-.009l-.006-.001-.066-.01a.036.036 0 0 1-.01-.002l-.058-.01a.388.388 0 0 1-.033-.007l-.058-.013a.305.305 0 0 1-.029-.007l-.087-.022-.011-.003c-.03-.008-.06-.018-.09-.028a.615.615 0 0 1-.032-.011l-.071-.026-.034-.013c-.031-.013-.062-.026-.093-.041l-.013-.006a1.579 1.579 0 0 1-.123-.067c-.022-.014-.045-.028-.066-.043l-.03-.021a1.334 1.334 0 0 1-.083-.066l-.007-.006a1.093 1.093 0 0 1-.097-.104.679.679 0 0 1-.049-.067l-.019-.029a.714.714 0 0 1-.053-.103c-.267-.642-.548-1.343-.548-1.343s-.024-.126-.084-.211v-.002a.16.16 0 0 0-.02-.024l-.003-.004a.129.129 0 0 0-.038-.028l-.011-.005a.124.124 0 0 0-.047-.011.11.11 0 0 0-.05.014c-.002.001-.004.001-.005.003a.158.158 0 0 0-.04.034l-.009.01-.005.005v.001c-.08.1-.12.279-.12.279s-.306.987-.547 1.308c-.242.321-.534.642-1.82.761-.586.054-1.044.111-1.419.157l-.142.018-.041.005-.095.012-.064.008-.079.009a8.96 8.96 0 0 0-.184.021l-.076.008-.045.004-.074.006-.04.003-.078.005-.029.002-.103.004c-.51.012-1.567.012-2.407-.083l-6.276-.713s-.23-.024-.563-.063a40.452 40.452 0 0 1-1.233-.164l-.015-.002-.128-.02-.039-.006-.11-.018-.036-.006-.126-.022-.048-.009-.08-.015-.05-.01-.084-.017-.036-.007-.101-.022a.571.571 0 0 0-.035-.008l-.067-.017-.032-.008a2.313 2.313 0 0 1-.084-.024c-.687-.214-1.693-.25-2.469-2.52-.777-2.27-.827-2.437-.827-2.437s-.025-.162-.097-.284a.03.03 0 0 0-.005-.007.208.208 0 0 0-.024-.034l-.015-.018a.272.272 0 0 0-.024-.024c-.006-.005-.011-.01-.018-.014-.011-.008-.023-.014-.035-.02l-.014-.005a.17.17 0 0 0-.051-.009.151.151 0 0 0-.095.036l-.005.004a.247.247 0 0 0-.039.04c-.104.132-.139.383-.139.383s-.866 2.627-1.274 3.411c-.407.784-.7 1.521-4.098 1.878-3.017.369-4.602.6-4.602.6l-2.788.356s-.497.018-.497.196c0 .178.421.178.573.196.153.018 3.132.392 3.132.392s4.755.606 5.213.677c.285.044.885.123 1.432.287l.058.018.095.031.044.015.117.043.026.01c.095.038.185.08.269.125l.029.016c.031.018.061.036.09.055l.03.019c.036.025.071.05.102.076.554.463 1.031 1.462 1.375 2.942.343 1.48.706 2.746.706 2.746s.058.446.248.446a.126.126 0 0 0 .033-.005l.012-.005c.006-.003.013-.005.019-.009l.013-.009.015-.012.013-.013.012-.014.012-.016a.086.086 0 0 0 .01-.016l.011-.019.009-.017.01-.021.007-.016.01-.025.001-.003c.046-.125.063-.262.063-.262s.938-3.482 1.167-4.088z"/></svg>