<svg id="Layer_1" data-name="Layer 1" xmlns="http://www.w3.org/2000/svg" xmlns:xlink="http://www.w3.org/1999/xlink" viewBox="0 0 142.07 91.57"><defs><style>.cls-1,.cls-2,.cls-5,.cls-6{fill:none;}.cls-2,.cls-5,.cls-6{stroke:#000;stroke-miterlimit:10;stroke-width:2px;}.cls-2{clip-rule:evenodd;}.cls-3{clip-path:url(#clip-path);}.cls-4{clip-path:url(#clip-path-2);}.cls-6{fill-rule:evenodd;}.cls-7{clip-path:url(#clip-path-3);}.cls-8{clip-path:url(#clip-path-4);}.cls-9{clip-path:url(#clip-path-5);}.cls-10{clip-path:url(#clip-path-6);}.cls-11{clip-path:url(#clip-path-7);}.cls-12{clip-path:url(#clip-path-8);}.cls-13{clip-path:url(#clip-path-9);}</style><clipPath id="clip-path"><path class="cls-1" d="M-681.55,29.5l8.07-26h60.85l8.08,26Zm69.5,22a7.5,7.5,0,0,1-7.5-7.5,7.5,7.5,0,0,1,7.5-7.5,7.5,7.5,0,0,1,7.5,7.5A7.5,7.5,0,0,1-612,51.5Zm-62,0a7.5,7.5,0,0,1-7.5-7.5,7.5,7.5,0,0,1,7.5-7.5,7.5,7.5,0,0,1,7.5,7.5A7.5,7.5,0,0,1-674,51.5ZM-603.4-.67a9.72,9.72,0,0,0-9.2-6.83h-60.91a9.72,9.72,0,0,0-9.2,6.83l-8.84,27.36V77.5a4.93,4.93,0,0,0,4.85,5h9.7a4.93,4.93,0,0,0,4.85-5v-10h58.2v10a4.93,4.93,0,0,0,4.85,5h9.7a4.93,4.93,0,0,0,4.85-5V26.69Z"/></clipPath><clipPath id="clip-path-2"><path class="cls-2" d="M-246.79,77.5a7.5,7.5,0,0,0,7.5-7.5,7.5,7.5,0,0,0-7.5-7.5,7.5,7.5,0,0,0-7.5,7.5A7.5,7.5,0,0,0-246.79,77.5Zm-81,0a7.5,7.5,0,0,0,7.5-7.5,7.5,7.5,0,0,0-7.5-7.5,7.5,7.5,0,0,0-7.5,7.5A7.5,7.5,0,0,0-327.79,77.5Zm70.05-41-12.39-15.31h-75.58a.22.22,0,0,0-.22.22V36.67a.22.22,0,0,0,.22.23h87.79a.23.23,0,0,0,.23-.23A.24.24,0,0,0-257.74,36.53Zm-56.73,32.7A13.52,13.52,0,0,1-328.08,82.5,13.53,13.53,0,0,1-341.7,69.23h-10.69a.9.9,0,0,1-.9-.91V15.4a.9.9,0,0,1,.9-.9h86.11a.9.9,0,0,1,.69.31L-245,38.67l25.94,3.25a.9.9,0,0,1,.8.89V68.32a.91.91,0,0,1-.91.91h-13.56A13.53,13.53,0,0,1-246.38,82.5,13.53,13.53,0,0,1-260,69.23Z"/></clipPath><clipPath id="clip-path-3"><path class="cls-1" d="M-56.72,76.5a7,7,0,0,0,7-7,7,7,0,0,0-7-7,7,7,0,0,0-7,7A7,7,0,0,0-56.72,76.5Zm-73,0a7,7,0,0,0,7-7,7,7,0,0,0-7-7,7,7,0,0,0-7,7A7,7,0,0,0-129.72,76.5Zm9.43-40.3V26.61h-2.9a4.12,4.12,0,0,0-2.72,1L-135,35.49Zm7.42.37,44.66,2.17-8.55-6.59a26.8,26.8,0,0,0-16.38-5.54h-19.73Zm41.54,35H-116a14,14,0,0,1-14,11.9,14,14,0,0,1-14-11.9h-16.22a2.32,2.32,0,0,1-2.36-2.27V61.05a2.29,2.29,0,0,1,2.35-2.27L-158,40.71a6.84,6.84,0,0,1,7.26-5.82l5.07.26L-130,21.54a8.44,8.44,0,0,1,5.52-2h32a32.36,32.36,0,0,1,19.75,6.67l17.85,13.77,24,5.75a6.71,6.71,0,0,1,5.25,6.45v6.64a1.81,1.81,0,0,1,1.84,1.77v8.78a2.32,2.32,0,0,1-2.36,2.27H-43.23A14,14,0,0,1-57.28,83.5,14,14,0,0,1-71.33,71.6Z"/></clipPath><clipPath id="clip-path-4"><path class="cls-1" d="M101.57,76a6.5,6.5,0,1,0-6.5-6.5A6.5,6.5,0,0,0,101.57,76Zm-58,0a6.5,6.5,0,1,0-6.5-6.5A6.5,6.5,0,0,0,43.57,76Zm4-42.71V11.23L21.5,11.09c-1.84,0-2.26,1.53-2.56,2.41l-.53,19.67Zm43.6.19L82.53,18.86c-4.43-7.48-11.71-7.72-17.21-7.72l-13.26.07v22.1ZM87.26,67.59H57.73c0,.16,0,.32,0,.48C57.74,76.3,51.32,83,43.44,83s-14.3-6.7-14.3-14.93v-.48H24.32v-.25C14.24,65.77,12,57.16,12.06,49.3h0l.08-2.95c-2.71-.71-6.06-3.08-6.06-5.9V23.86A6,6,0,0,1,12,17.72h1l.09-4.78,0-.28c.37-3.16,2.61-7.49,8.4-7.49L66.42,5C77.07,5,83.49,9.12,87.67,15.86c10,16.18,0,0,10.89,17.65l23.92.1c16.92,0,22.25,33.87-1.1,33.87-.78,0-.79,0-1.61.06v0h-3.92c0,.16,0,.32,0,.48,0,8.23-6.42,14.93-14.3,14.93s-14.3-6.7-14.3-14.93Z"/></clipPath><clipPath id="clip-path-5"><rect class="cls-1" x="-206.93" y="-327.5" width="1280" height="1219"/></clipPath><clipPath id="clip-path-6"><path class="cls-1" d="M426.8,77a7,7,0,1,0-7-7A7,7,0,0,0,426.8,77Zm-64,0a7,7,0,1,0-7-7A7,7,0,0,0,362.8,77Zm49-57V35h26c-3-5.19-7.32-11.21-12.35-15ZM342.65,4h86.1a5.29,5.29,0,0,1,3.11.89c14.06,10.19,21.94,33.4,21.94,33.4V61.14a11.56,11.56,0,0,1-11.7,11.43h-.37a14.6,14.6,0,0,1-28.51,0H377.38a14.6,14.6,0,0,1-28.51,0h-.37a11.56,11.56,0,0,1-11.7-11.43V9.71A5.78,5.78,0,0,1,342.65,4Zm77.72,69.16a8.89,8.89,0,0,1-.57-2.89v.23A6.38,6.38,0,0,0,420.37,73.16Z"/></clipPath><clipPath id="clip-path-7"><path class="cls-1" d="M266.07,75.74a8,8,0,1,0-8-8A8,8,0,0,0,266.07,75.74Zm-57,0a8,8,0,1,0-8-8A8,8,0,0,0,209.07,75.74Zm-24-77a3.82,3.82,0,0,1,1.2-2.81,3.92,3.92,0,0,1,2.84-1.19H253.7a3.9,3.9,0,0,1,2.84,1.19,3.82,3.82,0,0,1,1.2,2.81v12h10.09a9.79,9.79,0,0,1,3.69.81,9.63,9.63,0,0,1,3.19,2L287.2,25.93a8.61,8.61,0,0,1,1.42,1.87,11.47,11.47,0,0,1,.88,1.91,10,10,0,0,1,.41,2.31c.08,1,.14,1.7.16,2.16s0,1.25,0,2.37,0,1.86,0,2.19v20a3.92,3.92,0,0,1,2.84,1.19,3.85,3.85,0,0,1,1.19,2.81,5,5,0,0,1-.25,1.66,2.34,2.34,0,0,1-.85,1.15c-.4.29-.75.53-1,.72a3.59,3.59,0,0,1-1.48.38l-1.42.12c-.25,0-.79,0-1.61,0l-1.42,0h-4a15.3,15.3,0,0,1-4.73,11.31,16.24,16.24,0,0,1-22.83,0,15.3,15.3,0,0,1-4.73-11.31H225.44a15.3,15.3,0,0,1-4.73,11.31,16.24,16.24,0,0,1-22.83,0,15.3,15.3,0,0,1-4.73-11.31l-1.42,0c-.82,0-1.36,0-1.61,0l-1.42-.12a3.54,3.54,0,0,1-1.48-.38c-.3-.19-.64-.43-1-.72a2.29,2.29,0,0,1-.85-1.15,5,5,0,0,1-.26-1.66Zm96,36V32.86a1.89,1.89,0,0,0-.54-1.37L268.86,19.3a1.78,1.78,0,0,0-1.32-.56h-9.47v16Z"/></clipPath><clipPath id="clip-path-8"><path class="cls-1" d="M593.52,54.51c.34,0,.69,0,1,0a10.51,10.51,0,1,1-11,10.5,10.12,10.12,0,0,1,2.75-6.73l4.64,8.53a4.1,4.1,0,0,0,3.53,2.66,4.17,4.17,0,0,0,4-2,3.78,3.78,0,0,0-.29-4.28Zm-72,0a11.51,11.51,0,0,1,4.3.82l-7.22,6.89A3.84,3.84,0,0,0,517.56,66a4,4,0,0,0,2.92,2.79,4.26,4.26,0,0,0,4-1l7.22-6.73a10.06,10.06,0,0,1,.86,3.94,11,11,0,1,1-11-10.5Zm37-40c-4.36,0-4.36,5.65,0,6.17l4.26.65a62.6,62.6,0,0,0-23.33,12.33s.65-3.08-4.26-3.08c-14.17,0-20.78-1-20.78,5.19-9.26,0-10.9,3.64-10.9,10.39a78.53,78.53,0,0,1,13.29,1c-7.59,2.41-13.29,9.27-13.29,17.2,0,9.87,8.72,18.18,19.08,18.18s19.07-8.31,19.07-18.18a16.25,16.25,0,0,0-.34-3.57,23.59,23.59,0,0,0,6.81,1H563c4.36,0,10.8-1.63,12.43-9.42l1.88-9.25,4.09,7.31a18,18,0,0,0-7,13.95c0,9.87,8.72,18.18,19.08,18.18s19.07-8.31,19.07-18.18-8.72-18.17-19.07-18.17a18.8,18.8,0,0,0-4.94.65l-8.69-16.07c0-.12,0-.34,0-.49a21.53,21.53,0,0,0,3.75.33c7.08,0,7.15,0,7.15-7.79S590.68,15,583.6,15c-4.9,0-9,1.56-11.41,3.73C570.24,18,560.05,14.5,558.56,14.5Z"/></clipPath><clipPath id="clip-path-9"><path class="cls-1" d="M-427.34,62a5.77,5.77,0,0,1,5.5,6,5.77,5.77,0,0,1-5.5,6,5.77,5.77,0,0,1-5.5-6A5.77,5.77,0,0,1-427.34,62Zm-82,0a5.77,5.77,0,0,1,5.5,6,5.77,5.77,0,0,1-5.5,6,5.77,5.77,0,0,1-5.5-6A5.77,5.77,0,0,1-509.34,62Zm28.5-44h13.4c2.42,0,2.91.25,3.6,1.42a6.41,6.41,0,0,0,.4.61l8.6,11h-26Zm-35.85,0h22.85V31h-30l2.38-9.34A5.94,5.94,0,0,1-516.69,18Zm29-14a5.54,5.54,0,0,0-.8.21h-27.69c-8.23,0-14.74,5.88-16.82,13.51-.07.06-.13.13-.2.2l-4.35,17.87a7.07,7.07,0,0,0-.2,2.71V60.1a6.44,6.44,0,0,0,3.76,6l9.1,3.53C-523.87,77.83-517.4,84-509.3,84c7.76,0,14-5.66,15.43-13.3h51.44C-441,78.34-434.75,84-427,84c8.31,0,14.83-6.49,15.63-15l3.37-2.29a8.35,8.35,0,0,0,3.16-6.65V48.68a6.06,6.06,0,0,0-4.35-5.82l-28.49-10.18-15.63-20.57-.4-.63-.19.21a16.42,16.42,0,0,0-13.65-7.48h-18.4A6,6,0,0,0-487.73,4Z"/></clipPath></defs><title>Untitled-1</title><g class="cls-4"><rect class="cls-5" x="-1035.29" y="-162" width="1280" height="1219"/></g><path class="cls-6" d="M-246.79,77.5a7.5,7.5,0,0,0,7.5-7.5,7.5,7.5,0,0,0-7.5-7.5,7.5,7.5,0,0,0-7.5,7.5A7.5,7.5,0,0,0-246.79,77.5Zm-81,0a7.5,7.5,0,0,0,7.5-7.5,7.5,7.5,0,0,0-7.5-7.5,7.5,7.5,0,0,0-7.5,7.5A7.5,7.5,0,0,0-327.79,77.5Zm70.05-41-12.39-15.31h-75.58a.22.22,0,0,0-.22.22V36.67a.22.22,0,0,0,.22.23h87.79a.23.23,0,0,0,.23-.23A.24.24,0,0,0-257.74,36.53Zm-56.73,32.7A13.52,13.52,0,0,1-328.08,82.5,13.53,13.53,0,0,1-341.7,69.23h-10.69a.9.9,0,0,1-.9-.91V15.4a.9.9,0,0,1,.9-.9h86.11a.9.9,0,0,1,.69.31L-245,38.67l25.94,3.25a.9.9,0,0,1,.8.89V68.32a.91.91,0,0,1-.91.91h-13.56A13.53,13.53,0,0,1-246.38,82.5,13.53,13.53,0,0,1-260,69.23Z"/><g class="cls-8"><g class="cls-9"><rect x="1.07" width="141" height="88"/></g></g></svg>