<svg id="Layer_1" data-name="Layer 1" xmlns="http://www.w3.org/2000/svg" xmlns:xlink="http://www.w3.org/1999/xlink" viewBox="0 0 121.84 101.83"><defs><style>.cls-1,.cls-2,.cls-5,.cls-6{fill:none;}.cls-2,.cls-5,.cls-6{stroke:#000;stroke-miterlimit:10;stroke-width:2px;}.cls-2{clip-rule:evenodd;}.cls-3{clip-path:url(#clip-path);}.cls-4{clip-path:url(#clip-path-2);}.cls-6{fill-rule:evenodd;}.cls-7{clip-path:url(#clip-path-3);}.cls-8{clip-path:url(#clip-path-4);}.cls-9{clip-path:url(#clip-path-5);}.cls-10{clip-path:url(#clip-path-6);}.cls-11{clip-path:url(#clip-path-7);}.cls-12{clip-path:url(#clip-path-8);}.cls-13{clip-path:url(#clip-path-9);}</style><clipPath id="clip-path"><path class="cls-1" d="M-858.78,39.76l8.07-26h60.85l8.08,26Zm69.5,22a7.5,7.5,0,0,1-7.5-7.5,7.5,7.5,0,0,1,7.5-7.5,7.5,7.5,0,0,1,7.5,7.5A7.5,7.5,0,0,1-789.28,61.76Zm-62,0a7.5,7.5,0,0,1-7.5-7.5,7.5,7.5,0,0,1,7.5-7.5,7.5,7.5,0,0,1,7.5,7.5A7.5,7.5,0,0,1-851.28,61.76ZM-780.63,9.6a9.72,9.72,0,0,0-9.2-6.84h-60.91a9.72,9.72,0,0,0-9.2,6.84L-868.78,37V87.76a4.93,4.93,0,0,0,4.85,5h9.7a4.93,4.93,0,0,0,4.85-5v-10h58.2v10a4.93,4.93,0,0,0,4.85,5h9.7a4.93,4.93,0,0,0,4.85-5V37Z"/></clipPath><clipPath id="clip-path-2"><path class="cls-2" d="M-424,87.76a7.5,7.5,0,0,0,7.5-7.5,7.5,7.5,0,0,0-7.5-7.5,7.5,7.5,0,0,0-7.5,7.5A7.5,7.5,0,0,0-424,87.76Zm-81,0a7.5,7.5,0,0,0,7.5-7.5,7.5,7.5,0,0,0-7.5-7.5,7.5,7.5,0,0,0-7.5,7.5A7.5,7.5,0,0,0-505,87.76Zm70.06-41-12.39-15.31h-75.58a.23.23,0,0,0-.23.22V46.93a.23.23,0,0,0,.23.23h87.79a.23.23,0,0,0,.23-.23A.24.24,0,0,0-435,46.79Zm-56.73,32.7a13.52,13.52,0,0,1-13.61,13.27,13.53,13.53,0,0,1-13.62-13.27h-10.69a.91.91,0,0,1-.91-.91V25.66a.9.9,0,0,1,.91-.9h86.11a.93.93,0,0,1,.69.31l20.56,23.86,25.94,3.25a.9.9,0,0,1,.79.9v25.5a.9.9,0,0,1-.9.91H-410a13.53,13.53,0,0,1-13.62,13.27,13.53,13.53,0,0,1-13.62-13.27Z"/></clipPath><clipPath id="clip-path-3"><path class="cls-1" d="M-233.95,86.76a7,7,0,0,0,7-7,7,7,0,0,0-7-7,7,7,0,0,0-7,7A7,7,0,0,0-233.95,86.76Zm-73,0a7,7,0,0,0,7-7,7,7,0,0,0-7-7,7,7,0,0,0-7,7A7,7,0,0,0-306.95,86.76Zm9.43-40.3V36.87h-2.9a4.12,4.12,0,0,0-2.72,1l-9.12,7.87Zm7.42.37L-245.44,49-254,42.41a26.8,26.8,0,0,0-16.38-5.54H-290.1Zm41.54,35h-44.71a14,14,0,0,1-14.05,11.9,14,14,0,0,1-14.05-11.9h-16.22a2.32,2.32,0,0,1-2.36-2.27V71.31A2.29,2.29,0,0,1-337.6,69L-335.28,51A6.84,6.84,0,0,1-328,45.15l5.07.26,15.76-13.61a8.44,8.44,0,0,1,5.52-2h32a32.36,32.36,0,0,1,19.75,6.67l17.85,13.77L-208,56a6.71,6.71,0,0,1,5.25,6.45V69a1.81,1.81,0,0,1,1.84,1.77v8.78a2.32,2.32,0,0,1-2.36,2.27h-17.15a14,14,0,0,1-14,11.9A14,14,0,0,1-248.56,81.86Z"/></clipPath><clipPath id="clip-path-4"><path class="cls-1" d="M-75.66,86.26a6.5,6.5,0,0,0,6.5-6.5,6.5,6.5,0,0,0-6.5-6.5,6.5,6.5,0,0,0-6.5,6.5A6.5,6.5,0,0,0-75.66,86.26Zm-58,0a6.5,6.5,0,0,0,6.5-6.5,6.5,6.5,0,0,0-6.5-6.5,6.5,6.5,0,0,0-6.5,6.5A6.5,6.5,0,0,0-133.66,86.26Zm4-42.71V21.49l-26.09-.14c-1.84,0-2.26,1.53-2.56,2.41l-.53,19.67Zm43.6.19L-94.7,29.12c-4.43-7.48-11.71-7.72-17.21-7.72l-13.26.07v22.1ZM-90,77.85H-119.5c0,.16,0,.32,0,.48,0,8.23-6.42,14.93-14.3,14.93s-14.3-6.7-14.3-14.93v-.48h-4.82V77.6c-10.08-1.57-12.37-10.18-12.26-18h0l.08-2.94c-2.71-.72-6.06-3.09-6.06-5.91V34.12A6,6,0,0,1-165.28,28h1l.09-4.78,0-.28c.37-3.16,2.61-7.49,8.4-7.49l44.93-.17c10.65,0,17.07,4.12,21.25,10.86,10,16.18,0,0,10.89,17.65l23.92.1c16.92,0,22.25,33.87-1.1,33.87-.78,0-.79,0-1.61.06v0h-3.92c0,.16,0,.32,0,.48,0,8.23-6.42,14.93-14.3,14.93S-90,86.56-90,78.33Z"/></clipPath><clipPath id="clip-path-5"><path class="cls-1" d="M249.57,87.26a7,7,0,1,0-7-7A7,7,0,0,0,249.57,87.26Zm-64,0a7,7,0,1,0-7-7A7,7,0,0,0,185.57,87.26Zm49-57v15h26c-3-5.18-7.32-11.21-12.35-15Zm-69.15-16h86.1a5.29,5.29,0,0,1,3.11.89c14.06,10.19,21.94,33.4,21.94,33.4V71.4a11.56,11.56,0,0,1-11.7,11.43h-.37a14.6,14.6,0,0,1-28.51,0H200.15a14.6,14.6,0,0,1-28.51,0h-.37a11.56,11.56,0,0,1-11.7-11.43V20A5.78,5.78,0,0,1,165.42,14.26Zm77.72,69.16a8.89,8.89,0,0,1-.57-2.89v.23A6.38,6.38,0,0,0,243.14,83.42Z"/></clipPath><clipPath id="clip-path-6"><path class="cls-1" d="M88.84,86a8,8,0,1,0-8-8A8,8,0,0,0,88.84,86Zm-57,0a8,8,0,1,0-8-8A8,8,0,0,0,31.84,86ZM7.84,9A3.82,3.82,0,0,1,9,6.19,3.92,3.92,0,0,1,11.88,5H76.47a3.9,3.9,0,0,1,2.84,1.19A3.82,3.82,0,0,1,80.51,9V21H90.6a9.79,9.79,0,0,1,3.69.81,9.63,9.63,0,0,1,3.19,2L110,36.19a8.61,8.61,0,0,1,1.42,1.87,11.47,11.47,0,0,1,.88,1.91,10,10,0,0,1,.41,2.31c.08,1,.14,1.7.16,2.16s0,1.25,0,2.37,0,1.86,0,2.19V69a3.92,3.92,0,0,1,2.84,1.19A3.85,3.85,0,0,1,116.84,73a5,5,0,0,1-.25,1.66,2.34,2.34,0,0,1-.85,1.15c-.4.29-.75.53-1,.72a3.59,3.59,0,0,1-1.48.38L111.8,77c-.26,0-.79,0-1.61,0l-1.42,0h-4A15.3,15.3,0,0,1,100,88.31a16.24,16.24,0,0,1-22.83,0A15.3,15.3,0,0,1,72.44,77H48.21a15.3,15.3,0,0,1-4.73,11.31A15.6,15.6,0,0,1,32.07,93a15.61,15.61,0,0,1-11.42-4.69A15.3,15.3,0,0,1,15.92,77L14.5,77c-.82,0-1.36,0-1.61,0l-1.42-.12A3.54,3.54,0,0,1,10,76.53c-.3-.19-.64-.43-1-.72a2.29,2.29,0,0,1-.85-1.15A5,5,0,0,1,7.84,73Zm96,36V43.12a1.89,1.89,0,0,0-.54-1.37L91.62,29.56A1.74,1.74,0,0,0,90.31,29H80.84V45Z"/></clipPath><clipPath id="clip-path-7"><rect class="cls-1" x="-687.16" y="-323" width="1280" height="1219"/></clipPath><clipPath id="clip-path-8"><path class="cls-1" d="M416.29,64.77c.34,0,.69,0,1,0a10.51,10.51,0,1,1-11,10.5,10.12,10.12,0,0,1,2.75-6.73l4.64,8.53a4.09,4.09,0,0,0,3.53,2.66,4.17,4.17,0,0,0,4-2,3.79,3.79,0,0,0-.29-4.28Zm-72,0a11.55,11.55,0,0,1,4.3.82l-7.22,6.89a3.84,3.84,0,0,0-1.07,3.81,4,4,0,0,0,2.92,2.79,4.24,4.24,0,0,0,4-1l7.22-6.73a10.06,10.06,0,0,1,.86,3.94,11,11,0,1,1-11-10.5Zm37-40c-4.36,0-4.36,5.65,0,6.17l4.26.65a62.6,62.6,0,0,0-23.33,12.33s.65-3.08-4.26-3.08c-14.17,0-20.78-1-20.78,5.19-9.26,0-10.9,3.64-10.9,10.39a78.53,78.53,0,0,1,13.29,1c-7.59,2.41-13.29,9.27-13.29,17.2,0,9.87,8.72,18.18,19.08,18.18s19.07-8.31,19.07-18.18a16.25,16.25,0,0,0-.34-3.57,23.59,23.59,0,0,0,6.81,1h14.82c4.36,0,10.8-1.63,12.43-9.42l1.88-9.25,4.09,7.31a18,18,0,0,0-7,13.95c0,9.87,8.72,18.18,19.08,18.18s19.07-8.31,19.07-18.18-8.72-18.17-19.07-18.17a18.8,18.8,0,0,0-4.94.65L402.62,41c0-.12,0-.34,0-.49a21.53,21.53,0,0,0,3.75.33c7.08,0,7.15,0,7.15-7.79s-.07-7.79-7.15-7.79c-4.9,0-9,1.56-11.41,3.73C393,28.29,382.82,24.76,381.33,24.76Z"/></clipPath><clipPath id="clip-path-9"><path class="cls-1" d="M-604.57,72.26a5.77,5.77,0,0,1,5.5,6,5.77,5.77,0,0,1-5.5,6,5.77,5.77,0,0,1-5.5-6A5.77,5.77,0,0,1-604.57,72.26Zm-82,0a5.77,5.77,0,0,1,5.5,6,5.77,5.77,0,0,1-5.5,6,5.77,5.77,0,0,1-5.5-6A5.77,5.77,0,0,1-686.57,72.26Zm28.5-44h13.4c2.42,0,2.91.25,3.6,1.42a6.41,6.41,0,0,0,.4.61l8.6,11h-26Zm-35.85,0h22.85v13h-30l2.38-9.34A5.94,5.94,0,0,1-693.92,28.26Zm29-14a5.54,5.54,0,0,0-.8.21h-27.69c-8.23,0-14.74,5.88-16.82,13.51-.07.06-.13.13-.2.2l-4.35,17.87a7.07,7.07,0,0,0-.2,2.71V70.37a6.43,6.43,0,0,0,3.76,6l9.1,3.53c1.06,8.17,7.53,14.34,15.63,14.34,7.76,0,14-5.66,15.43-13.3h51.44c1.45,7.64,7.68,13.3,15.43,13.3,8.31,0,14.83-6.49,15.63-15l3.36-2.29a8.32,8.32,0,0,0,3.17-6.64V58.94a6.06,6.06,0,0,0-4.35-5.82l-28.49-10.18-15.63-20.57-.4-.63-.19.21a16.42,16.42,0,0,0-13.65-7.48h-18.4A6,6,0,0,0-665,14.26Z"/></clipPath></defs><title>Untitled-1</title><g class="cls-4"><rect class="cls-5" x="-1212.53" y="-151.74" width="1280" height="1219"/></g><path class="cls-6" d="M-424,87.76a7.5,7.5,0,0,0,7.5-7.5,7.5,7.5,0,0,0-7.5-7.5,7.5,7.5,0,0,0-7.5,7.5A7.5,7.5,0,0,0-424,87.76Zm-81,0a7.5,7.5,0,0,0,7.5-7.5,7.5,7.5,0,0,0-7.5-7.5,7.5,7.5,0,0,0-7.5,7.5A7.5,7.5,0,0,0-505,87.76Zm70.06-41-12.39-15.31h-75.58a.23.23,0,0,0-.23.22V46.93a.23.23,0,0,0,.23.23h87.79a.23.23,0,0,0,.23-.23A.24.24,0,0,0-435,46.79Zm-56.73,32.7a13.52,13.52,0,0,1-13.61,13.27,13.53,13.53,0,0,1-13.62-13.27h-10.69a.91.91,0,0,1-.91-.91V25.66a.9.9,0,0,1,.91-.9h86.11a.93.93,0,0,1,.69.31l20.56,23.86,25.94,3.25a.9.9,0,0,1,.79.9v25.5a.9.9,0,0,1-.9.91H-410a13.53,13.53,0,0,1-13.62,13.27,13.53,13.53,0,0,1-13.62-13.27Z"/><g class="cls-10"><g class="cls-11"><rect x="2.84" width="119" height="98"/></g></g></svg>