<svg xmlns="http://www.w3.org/2000/svg" enable-background="new 0 0 24 24" viewBox="0 0 24 24"><path fill="#19459D" d="M12.005,24C18.631,24,24,18.631,24,12.005C24,5.369,18.631,0,12.005,0C5.379,0,0,5.369,0,12.005C0,18.631,5.379,24,12.005,24L12.005,24z"/><path fill="#FFF" d="M18.42,20.639c2.631-1.955,4.343-5.094,4.343-8.634c0-3.54-1.712-6.679-4.343-8.645c-1.797-1.332-4.016-2.124-6.415-2.124c-2.399,0-4.618,0.793-6.415,2.125c-2.631,1.966-4.343,5.104-4.343,8.645c0,3.54,1.712,6.679,4.343,8.634c1.797,1.332,4.016,2.124,6.415,2.124C14.404,22.764,16.624,21.971,18.42,20.639L18.42,20.639z"/><path fill="#19459D" d="M3.424 9.247c-.285.867-.433 1.797-.433 2.758 0 2.463.993 4.703 2.599 6.331.75.75 1.627 1.374 2.6 1.839l-2.6-5.96L3.424 9.247 3.424 9.247zM19.297 6.711c-.264-.37-.56-.719-.877-1.036-.549-.56-1.173-1.046-1.85-1.437l-3.128 7.281h-1.437-1.437L7.439 4.238C6.763 4.629 6.14 5.115 5.59 5.675 5.273 5.992 4.977 6.341 4.713 6.711L5.59 8.74l3.308 7.598 1.712-3.9h1.395H13.4l1.712 3.9L18.42 8.74 19.297 6.711 19.297 6.711zM20.586 9.247l-2.166 4.967-2.601 5.96c.973-.465 1.85-1.089 2.6-1.839 1.607-1.627 2.6-3.868 2.6-6.33C21.019 11.044 20.871 10.114 20.586 9.247z"/><path fill="#19459D" d="M9.49 20.649c.792.232 1.638.359 2.515.359.877 0 1.722-.126 2.515-.359l-2.515-5.738L9.49 20.649 9.49 20.649zM14.594 3.371c-.814-.254-1.691-.38-2.589-.38-.898 0-1.765.127-2.589.38l2.589 5.897L14.594 3.371 14.594 3.371z"/><path fill="#163C89" d="M12,0C5.376,0.003,0,5.371,0,12.005l0,0C0,18.629,5.376,23.997,12,24v-1.236c-2.397-0.001-4.614-0.793-6.41-2.124c-2.631-1.955-4.343-5.094-4.343-8.634c0-3.541,1.712-6.679,4.343-8.645C7.386,2.03,9.603,1.237,12,1.236V0L12,0z"/><path fill="#DEDEDE" d="M8.19,20.175c-0.973-0.465-1.85-1.089-2.6-1.839c-1.606-1.628-2.599-3.868-2.599-6.331c0-0.961,0.148-1.891,0.433-2.758l2.166,4.968L8.19,20.175L8.19,20.175z M12,1.236C9.603,1.237,7.386,2.03,5.59,3.361c-2.631,1.966-4.343,5.104-4.343,8.645c0,3.54,1.712,6.679,4.343,8.634c1.796,1.331,4.013,2.123,6.41,2.124v-1.756c-0.875,0-1.719-0.127-2.51-0.359L12,14.922v-2.484h-1.39l-1.712,3.9L5.59,8.74L4.713,6.711c0.264-0.37,0.56-0.719,0.877-1.036c0.55-0.56,1.173-1.046,1.849-1.437l3.128,7.281H12V9.257L9.416,3.371c0.823-0.252,1.688-0.379,2.584-0.38V1.236L12,1.236z"/><path fill="#163C89" d="M3.424 9.247c-.285.867-.433 1.797-.433 2.758 0 2.463.993 4.703 2.599 6.331.75.75 1.627 1.374 2.6 1.839l-2.6-5.96L3.424 9.247 3.424 9.247zM7.439 4.238C6.763 4.629 6.14 5.115 5.59 5.675 5.273 5.992 4.977 6.341 4.713 6.711L5.59 8.74l3.308 7.598 1.712-3.9H12v-.919h-1.433L7.439 4.238 7.439 4.238zM12 14.922l-2.51 5.727c.791.231 1.635.358 2.51.359V14.922L12 14.922zM12 2.991c-.896 0-1.761.128-2.584.38L12 9.257V2.991L12 2.991z"/></svg>